<svg width="38" height="46" viewBox="0 0 38 46" fill="none" xmlns="http://www.w3.org/2000/svg">
<path d="M1.8814 3.8875L19 0.083374L36.1185 3.8875C37.0719 4.09933 37.75 4.94477 37.75 5.92123V26.7269C37.75 30.9063 35.6612 34.8092 32.1837 37.1275L19 45.9167L5.81625 37.1275C2.33877 34.8092 0.25 30.9063 0.25 26.7269V5.92123C0.25 4.94477 0.928188 4.09933 1.8814 3.8875ZM19 20.9167C21.8765 20.9167 24.2083 18.5849 24.2083 15.7084C24.2083 12.8319 21.8765 10.5 19 10.5C16.1235 10.5 13.7917 12.8319 13.7917 15.7084C13.7917 18.5849 16.1235 20.9167 19 20.9167ZM9.68221 31.3334H28.3177C27.7996 26.6459 23.8256 23 19 23C14.1744 23 10.2004 26.6459 9.68221 31.3334Z" fill="#604DC3"/>
</svg>
