<svg width="206" height="22" viewBox="0 0 206 22" fill="none" xmlns="http://www.w3.org/2000/svg">
<path d="M0.350049 21L6.83941 1.34341H13.975L20.7067 21H16.1292L10.69 4.38615L12.0901 4.95161H8.61659L10.0706 4.38615L4.76605 21H0.350049ZM5.27766 16.1262L6.624 12.4642H14.3251L15.6983 16.1262H5.27766ZM23.0285 21V6.2441H26.4482V12.5988H26.2059C26.2059 11.0909 26.3944 9.83434 26.7714 8.82907C27.1483 7.8238 27.7138 7.06985 28.4678 6.56722C29.2217 6.04663 30.1462 5.78634 31.2412 5.78634H31.4297C32.5427 5.78634 33.4672 6.04663 34.2032 6.56722C34.9571 7.06985 35.5226 7.8238 35.8996 8.82907C36.2945 9.83434 36.492 11.0909 36.492 12.5988H35.4418C35.4418 11.0909 35.6303 9.83434 36.0073 8.82907C36.4022 7.8238 36.9766 7.06985 37.7306 6.56722C38.4845 6.04663 39.409 5.78634 40.5041 5.78634H40.6925C41.8055 5.78634 42.739 6.04663 43.4929 6.56722C44.2648 7.06985 44.8482 7.8238 45.2432 8.82907C45.6381 9.83434 45.8356 11.0909 45.8356 12.5988V21H41.5273V12.3565C41.5273 11.5487 41.3119 10.8935 40.881 10.3908C40.4681 9.88819 39.8758 9.63688 39.1039 9.63688C38.332 9.63688 37.7216 9.89717 37.2728 10.4178C36.8241 10.9204 36.5997 11.5936 36.5997 12.4373V21H32.2644V12.3565C32.2644 11.5487 32.049 10.8935 31.6182 10.3908C31.2053 9.88819 30.6219 9.63688 29.868 9.63688C29.0781 9.63688 28.4588 9.89717 28.01 10.4178C27.5612 10.9204 27.3368 11.5936 27.3368 12.4373V21H23.0285ZM48.539 21V17.9842L55.4592 9.69073V10.1216L54.8129 9.31376L55.2976 9.5561H48.5659V6.2441H60.1714V9.2599L53.2512 17.5534V17.1495L53.8974 17.9573L53.4127 17.688H60.3868V21H48.539ZM178.285 21.5116C176.508 21.5116 174.982 21.2064 173.708 20.5961C172.433 19.9678 171.392 19.151 170.584 18.1458C169.776 17.1225 169.175 16.0275 168.78 14.8607C168.403 13.6759 168.215 12.527 168.215 11.414V10.8217C168.215 9.60098 168.412 8.39824 168.807 7.21346C169.202 6.01073 169.803 4.92468 170.611 3.95532C171.437 2.98595 172.469 2.21405 173.708 1.63961C174.964 1.04722 176.445 0.751024 178.151 0.751024C179.928 0.751024 181.499 1.08312 182.863 1.74732C184.227 2.41151 185.313 3.336 186.121 4.52078C186.947 5.68761 187.431 7.06088 187.575 8.64059H183.132C183.006 7.85073 182.719 7.17756 182.27 6.62107C181.822 6.06459 181.238 5.63376 180.52 5.32859C179.82 5.02341 179.03 4.87083 178.151 4.87083C177.271 4.87083 176.49 5.02341 175.808 5.32859C175.126 5.63376 174.551 6.06459 174.085 6.62107C173.636 7.17756 173.286 7.84176 173.035 8.61366C172.801 9.36761 172.684 10.2113 172.684 11.1448C172.684 12.0603 172.801 12.904 173.035 13.6759C173.286 14.4299 173.645 15.094 174.112 15.6685C174.596 16.225 175.189 16.6558 175.889 16.961C176.589 17.2482 177.388 17.3918 178.285 17.3918C179.65 17.3918 180.798 17.0597 181.732 16.3955C182.683 15.7313 183.258 14.8158 183.455 13.649H187.871C187.71 15.0851 187.225 16.4045 186.417 17.6072C185.627 18.792 184.541 19.7434 183.159 20.4615C181.795 21.1616 180.17 21.5116 178.285 21.5116ZM197.748 21.5116C196.456 21.5116 195.307 21.3141 194.301 20.9192C193.296 20.5063 192.444 19.9499 191.743 19.2498C191.061 18.5497 190.541 17.7508 190.182 16.8533C189.823 15.9378 189.643 14.9774 189.643 13.9721V13.3528C189.643 12.3296 189.823 11.3602 190.182 10.4447C190.559 9.51122 191.097 8.69444 191.797 7.99434C192.515 7.29424 193.377 6.74673 194.382 6.3518C195.388 5.93893 196.509 5.73249 197.748 5.73249C199.023 5.73249 200.154 5.93893 201.141 6.3518C202.146 6.74673 202.999 7.29424 203.699 7.99434C204.399 8.69444 204.938 9.51122 205.315 10.4447C205.692 11.3602 205.88 12.3296 205.88 13.3528V13.9721C205.88 14.9774 205.7 15.9378 205.341 16.8533C204.982 17.7508 204.453 18.5497 203.753 19.2498C203.071 19.9499 202.227 20.5063 201.222 20.9192C200.216 21.3141 199.059 21.5116 197.748 21.5116ZM197.748 17.8765C198.592 17.8765 199.292 17.697 199.848 17.338C200.405 16.9789 200.827 16.4763 201.114 15.83C201.419 15.1838 201.572 14.4658 201.572 13.6759C201.572 12.8322 201.419 12.0962 201.114 11.4679C200.809 10.8217 200.369 10.31 199.795 9.93307C199.238 9.5561 198.556 9.36761 197.748 9.36761C196.958 9.36761 196.276 9.5561 195.702 9.93307C195.127 10.31 194.687 10.8217 194.382 11.4679C194.095 12.0962 193.951 12.8322 193.951 13.6759C193.951 14.4658 194.095 15.1838 194.382 15.83C194.669 16.4763 195.1 16.9789 195.675 17.338C196.249 17.697 196.94 17.8765 197.748 17.8765Z" fill="white"/>
<path d="M72.5834 21.5116C70.8241 21.5116 69.2893 21.2244 67.9789 20.65C66.6684 20.0576 65.5824 19.2677 64.7207 18.2804C63.877 17.2931 63.2487 16.198 62.8359 14.9953C62.423 13.7926 62.2165 12.5899 62.2165 11.3871V10.7947C62.2165 9.5561 62.423 8.34439 62.8359 7.15961C63.2487 5.97483 63.8681 4.89776 64.6938 3.92839C65.5375 2.95902 66.5787 2.18712 67.8173 1.61268C69.0739 1.03824 70.519 0.751024 72.1525 0.751024C73.9297 0.751024 75.5004 1.08312 76.8647 1.74732C78.229 2.39356 79.3241 3.3001 80.1498 4.46693C80.9756 5.6158 81.4513 6.95317 81.5769 8.47902H77.1609C77.0532 7.76098 76.766 7.13268 76.2993 6.59415C75.8505 6.05561 75.2671 5.63376 74.549 5.32859C73.8489 5.02341 73.0501 4.87083 72.1525 4.87083C71.2909 4.87083 70.519 5.02341 69.8368 5.32859C69.1726 5.63376 68.5982 6.06459 68.1135 6.62107C67.6468 7.17756 67.2878 7.84176 67.0364 8.61366C66.8031 9.36761 66.6864 10.2023 66.6864 11.1179C66.6864 12.0693 66.8121 12.9399 67.0634 13.7298C67.3326 14.5017 67.7186 15.1748 68.2212 15.7493C68.7239 16.3058 69.3432 16.7366 70.0792 17.0418C70.8331 17.3469 71.6679 17.4995 72.5834 17.4995C73.8041 17.4995 74.8632 17.2482 75.7607 16.7456C76.6583 16.2429 77.3045 15.5787 77.6995 14.753L77.1609 17.7688V13.0835H81.2269V17.2841C80.3832 18.6484 79.2163 19.6985 77.7264 20.4345C76.2544 21.1526 74.5401 21.5116 72.5834 21.5116ZM72.0179 13.9452V10.7678H82.8425V13.9452H72.0179ZM85.4546 21V6.2441H88.8743V12.5719H88.7935C88.7935 10.4896 89.2333 8.88293 90.1129 7.752C91.0105 6.62107 92.303 6.05561 93.9904 6.05561H94.5559V9.77151H93.4788C92.294 9.77151 91.3785 10.0946 90.7323 10.7409C90.086 11.3692 89.7629 12.2847 89.7629 13.4874V21H85.4546ZM103.899 21.5116C102.606 21.5116 101.457 21.3141 100.452 20.9192C99.4467 20.5063 98.5941 19.9499 97.894 19.2498C97.2118 18.5497 96.6912 17.7508 96.3322 16.8533C95.9732 15.9378 95.7937 14.9774 95.7937 13.9721V13.3528C95.7937 12.3296 95.9732 11.3602 96.3322 10.4447C96.7092 9.51122 97.2477 8.69444 97.9478 7.99434C98.6659 7.29424 99.5275 6.74673 100.533 6.3518C101.538 5.93893 102.66 5.73249 103.899 5.73249C105.173 5.73249 106.304 5.93893 107.291 6.3518C108.297 6.74673 109.149 7.29424 109.849 7.99434C110.55 8.69444 111.088 9.51122 111.465 10.4447C111.842 11.3602 112.031 12.3296 112.031 13.3528V13.9721C112.031 14.9774 111.851 15.9378 111.492 16.8533C111.133 17.7508 110.603 18.5497 109.903 19.2498C109.221 19.9499 108.377 20.5063 107.372 20.9192C106.367 21.3141 105.209 21.5116 103.899 21.5116ZM103.899 17.8765C104.742 17.8765 105.442 17.697 105.999 17.338C106.555 16.9789 106.977 16.4763 107.264 15.83C107.57 15.1838 107.722 14.4658 107.722 13.6759C107.722 12.8322 107.57 12.0962 107.264 11.4679C106.959 10.8217 106.52 10.31 105.945 9.93307C105.389 9.5561 104.706 9.36761 103.899 9.36761C103.109 9.36761 102.427 9.5561 101.852 9.93307C101.278 10.31 100.838 10.8217 100.533 11.4679C100.246 12.0962 100.102 12.8322 100.102 13.6759C100.102 14.4658 100.246 15.1838 100.533 15.83C100.82 16.4763 101.251 16.9789 101.825 17.338C102.4 17.697 103.091 17.8765 103.899 17.8765ZM120.108 21L122.8 6.72878H127.513L130.636 21H127.297L124.093 6.83649H126.005L123.124 21H120.108ZM119.085 21L119.058 17.4187H122.02L122.046 21H119.085ZM117.146 21L113.188 6.2441H117.415L121.104 21H117.146ZM128.401 21L128.428 17.4187H131.39V21H128.401ZM129.613 21L132.898 6.2441H136.856L133.302 21H129.613ZM146.486 21.1885C144.996 21.1885 143.794 21.009 142.878 20.65C141.963 20.273 141.289 19.6537 140.859 18.792C140.446 17.9124 140.239 16.7276 140.239 15.2377V2.25893H144.251V15.3992C144.251 16.0993 144.431 16.6379 144.79 17.0148C145.167 17.3739 145.697 17.5534 146.379 17.5534H148.56V21.1885H146.486ZM138.004 9.39454V6.2441H148.56V9.39454H138.004ZM151.457 21V1.34341H155.765V12.6796H155.119C155.119 11.1897 155.307 9.93307 155.684 8.90985C156.061 7.88663 156.618 7.11473 157.354 6.59415C158.09 6.05561 159.014 5.78634 160.127 5.78634H160.316C161.949 5.78634 163.197 6.36976 164.059 7.53659C164.92 8.68546 165.351 10.3729 165.351 12.5988V21H161.043V12.3296C161.043 11.5218 160.8 10.8755 160.316 10.3908C159.849 9.88819 159.23 9.63688 158.458 9.63688C157.65 9.63688 156.995 9.89717 156.492 10.4178C156.008 10.9383 155.765 11.6295 155.765 12.4911V21H151.457Z" fill="#FF7B5D"/>
</svg>
