<svg width="245" height="26" viewBox="0 0 245 26" fill="none" xmlns="http://www.w3.org/2000/svg">
<path d="M0.416 25L8.128 1.64H16.608L24.608 25H19.168L12.704 5.256L14.368 5.928H10.24L11.968 5.256L5.664 25H0.416ZM6.272 19.208L7.872 14.856H17.024L18.656 19.208H6.272ZM27.3673 25V7.464H31.4313V15.016H31.1433C31.1433 13.224 31.3673 11.7307 31.8153 10.536C32.2633 9.34133 32.9353 8.44533 33.8313 7.848C34.7273 7.22933 35.8259 6.92 37.1273 6.92H37.3513C38.6739 6.92 39.7726 7.22933 40.6473 7.848C41.5433 8.44533 42.2153 9.34133 42.6632 10.536C43.1326 11.7307 43.3673 13.224 43.3673 15.016H42.1193C42.1193 13.224 42.3433 11.7307 42.7913 10.536C43.2606 9.34133 43.9433 8.44533 44.8393 7.848C45.7353 7.22933 46.8339 6.92 48.1353 6.92H48.3593C49.6819 6.92 50.7913 7.22933 51.6873 7.848C52.6046 8.44533 53.2979 9.34133 53.7673 10.536C54.2366 11.7307 54.4713 13.224 54.4713 15.016V25H49.3513V14.728C49.3513 13.768 49.0953 12.9893 48.5833 12.392C48.0926 11.7947 47.3886 11.496 46.4713 11.496C45.5539 11.496 44.8286 11.8053 44.2953 12.424C43.7619 13.0213 43.4953 13.8213 43.4953 14.824V25H38.3433V14.728C38.3433 13.768 38.0873 12.9893 37.5753 12.392C37.0846 11.7947 36.3913 11.496 35.4953 11.496C34.5566 11.496 33.8206 11.8053 33.2873 12.424C32.7539 13.0213 32.4873 13.8213 32.4873 14.824V25H27.3673ZM57.684 25V21.416L65.908 11.56V12.072L65.14 11.112L65.716 11.4H57.716V7.464H71.508V11.048L63.284 20.904V20.424L64.052 21.384L63.476 21.064H71.764V25H57.684ZM211.875 25.608C209.763 25.608 207.95 25.2453 206.435 24.52C204.921 23.7733 203.683 22.8027 202.723 21.608C201.763 20.392 201.049 19.0907 200.579 17.704C200.131 16.296 199.907 14.9307 199.907 13.608V12.904C199.907 11.4533 200.142 10.024 200.611 8.616C201.081 7.18667 201.795 5.896 202.755 4.744C203.737 3.592 204.963 2.67467 206.435 1.992C207.929 1.288 209.689 0.935999 211.715 0.935999C213.827 0.935999 215.694 1.33067 217.315 2.12C218.937 2.90933 220.227 4.008 221.187 5.416C222.169 6.80267 222.745 8.43467 222.915 10.312H217.635C217.486 9.37333 217.145 8.57333 216.611 7.912C216.078 7.25067 215.385 6.73867 214.531 6.376C213.699 6.01333 212.761 5.832 211.715 5.832C210.67 5.832 209.742 6.01333 208.931 6.376C208.121 6.73867 207.438 7.25067 206.883 7.912C206.35 8.57333 205.934 9.36267 205.635 10.28C205.358 11.176 205.219 12.1787 205.219 13.288C205.219 14.376 205.358 15.3787 205.635 16.296C205.934 17.192 206.361 17.9813 206.915 18.664C207.491 19.3253 208.195 19.8373 209.027 20.2C209.859 20.5413 210.809 20.712 211.875 20.712C213.497 20.712 214.862 20.3173 215.971 19.528C217.102 18.7387 217.785 17.6507 218.019 16.264H223.267C223.075 17.9707 222.499 19.5387 221.539 20.968C220.601 22.376 219.31 23.5067 217.667 24.36C216.046 25.192 214.115 25.608 211.875 25.608ZM235.005 25.608C233.469 25.608 232.104 25.3733 230.909 24.904C229.714 24.4133 228.701 23.752 227.869 22.92C227.058 22.088 226.44 21.1387 226.013 20.072C225.586 18.984 225.373 17.8427 225.373 16.648V15.912C225.373 14.696 225.586 13.544 226.013 12.456C226.461 11.3467 227.101 10.376 227.933 9.544C228.786 8.712 229.81 8.06133 231.005 7.592C232.2 7.10133 233.533 6.856 235.005 6.856C236.52 6.856 237.864 7.10133 239.037 7.592C240.232 8.06133 241.245 8.712 242.077 9.544C242.909 10.376 243.549 11.3467 243.997 12.456C244.445 13.544 244.669 14.696 244.669 15.912V16.648C244.669 17.8427 244.456 18.984 244.029 20.072C243.602 21.1387 242.973 22.088 242.141 22.92C241.33 23.752 240.328 24.4133 239.133 24.904C237.938 25.3733 236.562 25.608 235.005 25.608ZM235.005 21.288C236.008 21.288 236.84 21.0747 237.501 20.648C238.162 20.2213 238.664 19.624 239.005 18.856C239.368 18.088 239.549 17.2347 239.549 16.296C239.549 15.2933 239.368 14.4187 239.005 13.672C238.642 12.904 238.12 12.296 237.437 11.848C236.776 11.4 235.965 11.176 235.005 11.176C234.066 11.176 233.256 11.4 232.573 11.848C231.89 12.296 231.368 12.904 231.005 13.672C230.664 14.4187 230.493 15.2933 230.493 16.296C230.493 17.2347 230.664 18.088 231.005 18.856C231.346 19.624 231.858 20.2213 232.541 20.648C233.224 21.0747 234.045 21.288 235.005 21.288Z" fill="#051824"/>
<path d="M86.2585 25.608C84.1678 25.608 82.3438 25.2667 80.7865 24.584C79.2292 23.88 77.9385 22.9413 76.9145 21.768C75.9118 20.5947 75.1652 19.2933 74.6745 17.864C74.1838 16.4347 73.9385 15.0053 73.9385 13.576V12.872C73.9385 11.4 74.1838 9.96 74.6745 8.552C75.1652 7.144 75.9012 5.864 76.8825 4.712C77.8852 3.56 79.1225 2.64267 80.5945 1.96C82.0878 1.27733 83.8052 0.935999 85.7465 0.935999C87.8585 0.935999 89.7252 1.33067 91.3465 2.12C92.9678 2.888 94.2692 3.96533 95.2505 5.352C96.2318 6.71733 96.7972 8.30667 96.9465 10.12H91.6985C91.5705 9.26667 91.2292 8.52 90.6745 7.88C90.1412 7.24 89.4478 6.73867 88.5945 6.376C87.7625 6.01333 86.8132 5.832 85.7465 5.832C84.7225 5.832 83.8052 6.01333 82.9945 6.376C82.2052 6.73867 81.5225 7.25067 80.9465 7.912C80.3918 8.57333 79.9652 9.36267 79.6665 10.28C79.3892 11.176 79.2505 12.168 79.2505 13.256C79.2505 14.3867 79.3998 15.4213 79.6985 16.36C80.0185 17.2773 80.4772 18.0773 81.0745 18.76C81.6718 19.4213 82.4078 19.9333 83.2825 20.296C84.1785 20.6587 85.1705 20.84 86.2585 20.84C87.7092 20.84 88.9678 20.5413 90.0345 19.944C91.1012 19.3467 91.8692 18.5573 92.3385 17.576L91.6985 21.16V15.592H96.5305V20.584C95.5278 22.2053 94.1412 23.4533 92.3705 24.328C90.6212 25.1813 88.5838 25.608 86.2585 25.608ZM85.5865 16.616V12.84H98.4505V16.616H85.5865ZM101.555 25V7.464H105.619V14.984H105.523C105.523 12.5093 106.045 10.6 107.091 9.256C108.157 7.912 109.693 7.24 111.699 7.24H112.371V11.656H111.091C109.683 11.656 108.595 12.04 107.827 12.808C107.059 13.5547 106.675 14.6427 106.675 16.072V25H101.555ZM123.474 25.608C121.938 25.608 120.572 25.3733 119.378 24.904C118.183 24.4133 117.17 23.752 116.338 22.92C115.527 22.088 114.908 21.1387 114.482 20.072C114.055 18.984 113.842 17.8427 113.842 16.648V15.912C113.842 14.696 114.055 13.544 114.482 12.456C114.93 11.3467 115.57 10.376 116.402 9.544C117.255 8.712 118.279 8.06133 119.474 7.592C120.668 7.10133 122.002 6.856 123.474 6.856C124.988 6.856 126.332 7.10133 127.506 7.592C128.7 8.06133 129.714 8.712 130.546 9.544C131.378 10.376 132.018 11.3467 132.466 12.456C132.914 13.544 133.138 14.696 133.138 15.912V16.648C133.138 17.8427 132.924 18.984 132.498 20.072C132.071 21.1387 131.442 22.088 130.61 22.92C129.799 23.752 128.796 24.4133 127.602 24.904C126.407 25.3733 125.031 25.608 123.474 25.608ZM123.474 21.288C124.476 21.288 125.308 21.0747 125.97 20.648C126.631 20.2213 127.132 19.624 127.474 18.856C127.836 18.088 128.018 17.2347 128.018 16.296C128.018 15.2933 127.836 14.4187 127.474 13.672C127.111 12.904 126.588 12.296 125.906 11.848C125.244 11.4 124.434 11.176 123.474 11.176C122.535 11.176 121.724 11.4 121.042 11.848C120.359 12.296 119.836 12.904 119.474 13.672C119.132 14.4187 118.962 15.2933 118.962 16.296C118.962 17.2347 119.132 18.088 119.474 18.856C119.815 19.624 120.327 20.2213 121.01 20.648C121.692 21.0747 122.514 21.288 123.474 21.288ZM142.737 25L145.937 8.04H151.537L155.249 25H151.281L147.473 8.168H149.745L146.321 25H142.737ZM141.521 25L141.489 20.744H145.009L145.041 25H141.521ZM139.217 25L134.513 7.464H139.537L143.921 25H139.217ZM152.593 25L152.625 20.744H156.145V25H152.593ZM154.033 25L157.937 7.464H162.641L158.417 25H154.033ZM174.085 25.224C172.315 25.224 170.885 25.0107 169.797 24.584C168.709 24.136 167.909 23.4 167.397 22.376C166.907 21.3307 166.661 19.9227 166.661 18.152V2.728H171.429V18.344C171.429 19.176 171.643 19.816 172.069 20.264C172.517 20.6907 173.147 20.904 173.957 20.904H176.549V25.224H174.085ZM164.005 11.208V7.464H176.549V11.208H164.005ZM179.992 25V1.64H185.112V15.112H184.344C184.344 13.3413 184.568 11.848 185.016 10.632C185.464 9.416 186.126 8.49867 187 7.88C187.875 7.24 188.974 6.92 190.296 6.92H190.52C192.462 6.92 193.944 7.61333 194.968 9C195.992 10.3653 196.504 12.3707 196.504 15.016V25H191.384V14.696C191.384 13.736 191.096 12.968 190.52 12.392C189.966 11.7947 189.23 11.496 188.312 11.496C187.352 11.496 186.574 11.8053 185.976 12.424C185.4 13.0427 185.112 13.864 185.112 14.888V25H179.992Z" fill="#FF7B5D"/>
</svg>
