<svg width="274" height="192" viewBox="0 0 274 192" fill="none" xmlns="http://www.w3.org/2000/svg">
<g filter="url(#filter0_d_5_10152)">
<rect x="47.4482" y="29.7597" width="179.552" height="97.3952" rx="12.0272" fill="white"/>
</g>
<path d="M58.6306 48.7104V41.8393H60.487V48.7104H58.6306ZM56.3101 42.0657V40.447H62.8189V42.0657H56.3101ZM66.1223 48.9255C65.579 48.9255 65.096 48.8425 64.6734 48.6764C64.2508 48.5029 63.8923 48.2689 63.598 47.9746C63.3113 47.6803 63.0924 47.3445 62.9415 46.9671C62.7906 46.5823 62.7151 46.1785 62.7151 45.7559V45.4956C62.7151 45.0654 62.7906 44.6579 62.9415 44.2731C63.1 43.8806 63.3264 43.5373 63.6207 43.243C63.9225 42.9486 64.2848 42.7185 64.7074 42.5525C65.13 42.3789 65.6016 42.2921 66.1223 42.2921C66.6581 42.2921 67.1336 42.3789 67.5486 42.5525C67.9712 42.7185 68.3297 42.9486 68.624 43.243C68.9183 43.5373 69.1447 43.8806 69.3032 44.2731C69.4616 44.6579 69.5409 45.0654 69.5409 45.4956V45.7559C69.5409 46.1785 69.4654 46.5823 69.3145 46.9671C69.1636 47.3445 68.9409 47.6803 68.6466 47.9746C68.3599 48.2689 68.0052 48.5029 67.5826 48.6764C67.16 48.8425 66.6732 48.9255 66.1223 48.9255ZM66.1223 47.3973C66.477 47.3973 66.7713 47.3218 67.0053 47.1709C67.2392 47.02 67.4166 46.8087 67.5373 46.537C67.6656 46.2653 67.7297 45.9635 67.7297 45.6314C67.7297 45.2767 67.6656 44.9673 67.5373 44.7032C67.409 44.4315 67.2241 44.2165 66.9826 44.058C66.7487 43.8995 66.4619 43.8203 66.1223 43.8203C65.7903 43.8203 65.5035 43.8995 65.262 44.058C65.0205 44.2165 64.8357 44.4315 64.7074 44.7032C64.5866 44.9673 64.5262 45.2767 64.5262 45.6314C64.5262 45.9635 64.5866 46.2653 64.7074 46.537C64.8281 46.8087 65.0092 47.02 65.2507 47.1709C65.4922 47.3218 65.7827 47.3973 66.1223 47.3973ZM73.6235 48.7896C72.9971 48.7896 72.4915 48.7142 72.1067 48.5632C71.7218 48.4048 71.4388 48.1444 71.2577 47.7822C71.0841 47.4124 70.9973 46.9143 70.9973 46.288V40.8319H72.684V46.3559C72.684 46.6502 72.7594 46.8766 72.9104 47.0351C73.0688 47.186 73.2915 47.2615 73.5782 47.2615H74.4951V48.7896H73.6235ZM70.0578 43.8316V42.5072H74.4951V43.8316H70.0578ZM79.4378 48.7104V46.8766H79.1321V44.8843C79.1321 44.5674 79.0567 44.3297 78.9058 44.1712C78.7548 44.0127 78.5133 43.9335 78.1813 43.9335C78.0153 43.9335 77.7964 43.9372 77.5247 43.9448C77.2531 43.9523 76.9739 43.9636 76.6871 43.9787C76.4003 43.9938 76.14 44.0089 75.906 44.024V42.4959C76.0796 42.4808 76.2833 42.4657 76.5173 42.4506C76.7512 42.4355 76.9927 42.4242 77.2418 42.4166C77.4908 42.4091 77.7247 42.4053 77.9436 42.4053C78.5775 42.4053 79.1095 42.4959 79.5397 42.677C79.9774 42.8581 80.3094 43.1335 80.5358 43.5033C80.7622 43.8655 80.8754 44.3334 80.8754 44.907V48.7104H79.4378ZM77.4568 48.8689C77.0116 48.8689 76.6192 48.7896 76.2796 48.6312C75.9475 48.4727 75.6872 48.2463 75.4985 47.952C75.3099 47.6501 75.2155 47.2916 75.2155 46.8766C75.2155 46.4238 75.3325 46.054 75.5664 45.7673C75.8004 45.4729 76.1286 45.2579 76.5512 45.122C76.9739 44.9787 77.4606 44.907 78.0115 44.907H79.3359V45.9144H78.0002C77.6832 45.9144 77.438 45.9937 77.2644 46.1521C77.0984 46.3031 77.0154 46.5106 77.0154 46.7747C77.0154 47.0237 77.0984 47.2275 77.2644 47.386C77.438 47.5369 77.6832 47.6124 78.0002 47.6124C78.2039 47.6124 78.385 47.5784 78.5435 47.5105C78.7095 47.435 78.8454 47.3105 78.951 47.1369C79.0567 46.9634 79.1171 46.7219 79.1321 46.4125L79.5623 46.8653C79.5246 47.2954 79.4189 47.6577 79.2453 47.952C79.0793 48.2463 78.8454 48.4727 78.5435 48.6312C78.2492 48.7896 77.887 48.8689 77.4568 48.8689ZM82.4913 48.7104V40.447H84.3138V48.7104H82.4913ZM81.7555 41.7827V40.447H84.3138V41.7827H81.7555ZM91.3364 48.9255C90.5893 48.9255 89.9592 48.8085 89.446 48.5746C88.9328 48.3331 88.5442 48.0086 88.2801 47.6011C88.016 47.186 87.8839 46.7106 87.8839 46.1748H89.6837C89.6837 46.3861 89.7403 46.5823 89.8535 46.7634C89.9743 46.9445 90.1554 47.0917 90.3969 47.2049C90.6384 47.3105 90.9515 47.3633 91.3364 47.3633C91.6835 47.3633 91.9741 47.3181 92.208 47.2275C92.442 47.1369 92.6193 47.0124 92.7401 46.854C92.8608 46.6879 92.9212 46.4993 92.9212 46.288C92.9212 46.0238 92.808 45.8163 92.5816 45.6654C92.3552 45.5069 91.9892 45.405 91.4836 45.3597L90.861 45.3031C90.0384 45.2352 89.3819 44.9787 88.8913 44.5334C88.4008 44.0882 88.1556 43.4995 88.1556 42.7675C88.1556 42.2393 88.2801 41.7827 88.5291 41.3978C88.7857 41.013 89.1404 40.7187 89.5932 40.5149C90.046 40.3036 90.5818 40.198 91.2006 40.198C91.8496 40.198 92.4042 40.3111 92.8646 40.5375C93.3325 40.7564 93.6909 41.0696 93.9399 41.4771C94.189 41.877 94.3135 42.3487 94.3135 42.892H92.5023C92.5023 42.6883 92.4533 42.5034 92.3552 42.3374C92.2571 42.1638 92.1099 42.0242 91.9137 41.9186C91.725 41.8129 91.4873 41.7601 91.2006 41.7601C90.9289 41.7601 90.6987 41.8054 90.5101 41.8959C90.3289 41.9865 90.1931 42.111 90.1026 42.2695C90.012 42.4204 89.9667 42.5864 89.9667 42.7675C89.9667 43.0015 90.0497 43.2052 90.2158 43.3788C90.3818 43.5524 90.6534 43.6542 91.0308 43.6844L91.6647 43.741C92.2684 43.7939 92.8004 43.9259 93.2608 44.1372C93.7211 44.341 94.0796 44.624 94.3361 44.9862C94.6003 45.3409 94.7323 45.7748 94.7323 46.288C94.7323 46.8162 94.5927 47.2803 94.3135 47.6803C94.0418 48.0727 93.6532 48.3783 93.1476 48.5972C92.6419 48.816 92.0382 48.9255 91.3364 48.9255ZM99.6563 48.7104V46.8766H99.3507V44.8843C99.3507 44.5674 99.2752 44.3297 99.1243 44.1712C98.9734 44.0127 98.7319 43.9335 98.3998 43.9335C98.2338 43.9335 98.015 43.9372 97.7433 43.9448C97.4716 43.9523 97.1924 43.9636 96.9056 43.9787C96.6189 43.9938 96.3585 44.0089 96.1246 44.024V42.4959C96.2981 42.4808 96.5019 42.4657 96.7358 42.4506C96.9698 42.4355 97.2113 42.4242 97.4603 42.4166C97.7093 42.4091 97.9433 42.4053 98.1621 42.4053C98.796 42.4053 99.328 42.4959 99.7582 42.677C100.196 42.8581 100.528 43.1335 100.754 43.5033C100.981 43.8655 101.094 44.3334 101.094 44.907V48.7104H99.6563ZM97.6754 48.8689C97.2301 48.8689 96.8377 48.7896 96.4981 48.6312C96.1661 48.4727 95.9057 48.2463 95.7171 47.952C95.5284 47.6501 95.4341 47.2916 95.4341 46.8766C95.4341 46.4238 95.551 46.054 95.785 45.7673C96.0189 45.4729 96.3472 45.2579 96.7698 45.122C97.1924 44.9787 97.6791 44.907 98.23 44.907H99.5544V45.9144H98.2187C97.9018 45.9144 97.6565 45.9937 97.4829 46.1521C97.3169 46.3031 97.2339 46.5106 97.2339 46.7747C97.2339 47.0237 97.3169 47.2275 97.4829 47.386C97.6565 47.5369 97.9018 47.6124 98.2187 47.6124C98.4225 47.6124 98.6036 47.5784 98.7621 47.5105C98.9281 47.435 99.0639 47.3105 99.1696 47.1369C99.2752 46.9634 99.3356 46.7219 99.3507 46.4125L99.7808 46.8653C99.7431 47.2954 99.6375 47.6577 99.4639 47.952C99.2979 48.2463 99.0639 48.4727 98.7621 48.6312C98.4677 48.7896 98.1055 48.8689 97.6754 48.8689ZM102.71 48.7104V40.447H104.532V48.7104H102.71ZM101.974 41.7827V40.447H104.532V41.7827H101.974ZM109.042 48.9255C108.514 48.9255 108.046 48.8349 107.639 48.6538C107.239 48.4727 106.903 48.2312 106.631 47.9293C106.367 47.6199 106.163 47.2766 106.02 46.8992C105.884 46.5144 105.816 46.1219 105.816 45.722V45.4956C105.816 45.0805 105.884 44.6843 106.02 44.307C106.163 43.9221 106.367 43.5788 106.631 43.2769C106.895 42.9751 107.224 42.7373 107.616 42.5638C108.016 42.3827 108.469 42.2921 108.974 42.2921C109.639 42.2921 110.197 42.443 110.65 42.7449C111.11 43.0392 111.461 43.4278 111.703 43.9108C111.944 44.3863 112.065 44.907 112.065 45.4729V46.0842H106.575V45.0541H110.967L110.378 45.5295C110.378 45.1598 110.325 44.8428 110.22 44.5787C110.114 44.3146 109.956 44.1146 109.744 43.9787C109.54 43.8354 109.284 43.7637 108.974 43.7637C108.658 43.7637 108.39 43.8354 108.171 43.9787C107.952 44.1221 107.786 44.3334 107.673 44.6126C107.56 44.8843 107.503 45.2201 107.503 45.6201C107.503 45.9899 107.556 46.3144 107.661 46.5936C107.767 46.8653 107.933 47.0766 108.159 47.2275C108.386 47.3784 108.68 47.4539 109.042 47.4539C109.374 47.4539 109.646 47.3898 109.857 47.2615C110.069 47.1332 110.212 46.9747 110.288 46.786H111.952C111.861 47.2011 111.684 47.5709 111.42 47.8954C111.155 48.2199 110.823 48.4727 110.423 48.6538C110.023 48.8349 109.563 48.9255 109.042 48.9255ZM115.619 48.9028C114.736 48.9028 114.046 48.7217 113.548 48.3595C113.05 47.9972 112.786 47.4879 112.756 46.8313H114.363C114.393 47.0275 114.51 47.2049 114.714 47.3633C114.925 47.5143 115.238 47.5897 115.653 47.5897C115.97 47.5897 116.231 47.5369 116.434 47.4313C116.646 47.3181 116.751 47.1596 116.751 46.9558C116.751 46.7747 116.672 46.6313 116.514 46.5257C116.355 46.4125 116.072 46.3332 115.665 46.288L115.178 46.2427C114.431 46.1672 113.869 45.9597 113.491 45.6201C113.122 45.2805 112.937 44.8466 112.937 44.3183C112.937 43.8806 113.046 43.5146 113.265 43.2203C113.484 42.926 113.786 42.7034 114.171 42.5525C114.563 42.4015 115.008 42.3261 115.506 42.3261C116.306 42.3261 116.951 42.5034 117.442 42.8581C117.932 43.2052 118.189 43.7108 118.212 44.3749H116.604C116.574 44.1712 116.468 44.0014 116.287 43.8655C116.106 43.7222 115.838 43.6505 115.484 43.6505C115.204 43.6505 114.982 43.7033 114.816 43.8089C114.65 43.9146 114.567 44.058 114.567 44.2391C114.567 44.4127 114.638 44.5447 114.782 44.6353C114.925 44.7258 115.159 44.79 115.484 44.8277L115.97 44.873C116.733 44.956 117.325 45.1673 117.748 45.5069C118.17 45.8465 118.381 46.3031 118.381 46.8766C118.381 47.2916 118.268 47.6539 118.042 47.9633C117.815 48.2651 117.495 48.4991 117.08 48.6651C116.665 48.8236 116.178 48.9028 115.619 48.9028Z" fill="#273266"/>
<path d="M60.6728 63.6313C60.1502 63.6313 59.7155 63.5566 59.3688 63.4073C59.0222 63.2526 58.7608 63.0366 58.5848 62.7593C58.4088 62.4766 58.3208 62.1459 58.3208 61.7673H59.4968C59.4968 61.9166 59.5368 62.0579 59.6168 62.1913C59.6968 62.3193 59.8248 62.4233 60.0008 62.5033C60.1768 62.5779 60.4008 62.6153 60.6728 62.6153C61.0355 62.6153 61.3128 62.5513 61.5048 62.4233C61.7022 62.2953 61.8008 62.1246 61.8008 61.9113C61.8008 61.7246 61.7182 61.5726 61.5528 61.4553C61.3875 61.3326 61.1235 61.2526 60.7608 61.2153L60.3528 61.1833C59.7822 61.1299 59.3288 60.9593 58.9928 60.6713C58.6568 60.3779 58.4888 59.9646 58.4888 59.4313C58.4888 59.0633 58.5715 58.7566 58.7368 58.5113C58.9022 58.2606 59.1395 58.0739 59.4488 57.9513C59.7582 57.8233 60.1288 57.7593 60.5608 57.7593C61.0248 57.7593 61.4142 57.8313 61.7288 57.9753C62.0435 58.1193 62.2808 58.3273 62.4408 58.5993C62.6062 58.8713 62.6888 59.2019 62.6888 59.5913H61.5128C61.5128 59.4366 61.4755 59.3006 61.4008 59.1833C61.3315 59.0606 61.2275 58.9619 61.0888 58.8873C60.9502 58.8126 60.7742 58.7753 60.5608 58.7753C60.3742 58.7753 60.2142 58.8019 60.0808 58.8553C59.9475 58.9086 59.8462 58.9859 59.7768 59.0873C59.7075 59.1833 59.6728 59.2979 59.6728 59.4313C59.6728 59.5966 59.7342 59.7459 59.8568 59.8793C59.9795 60.0073 60.1822 60.0873 60.4648 60.1193L60.8728 60.1513C61.5128 60.2046 62.0248 60.3779 62.4088 60.6713C62.7928 60.9646 62.9848 61.3779 62.9848 61.9113C62.9848 62.2793 62.8942 62.5913 62.7128 62.8473C62.5315 63.1033 62.2675 63.2979 61.9208 63.4313C61.5795 63.5646 61.1635 63.6313 60.6728 63.6313ZM60.1048 64.6313V63.4633H61.1528V64.6313H60.1048ZM60.0728 58.1513V56.9833H61.1208V58.1513H60.0728ZM65.7398 63.7513C65.2864 63.7513 64.8918 63.6686 64.5558 63.5033C64.2251 63.3326 63.9718 63.1033 63.7958 62.8153C63.6198 62.5273 63.5318 62.2019 63.5318 61.8393H64.7958C64.7958 62.0846 64.8784 62.2846 65.0438 62.4393C65.2091 62.5886 65.4411 62.6633 65.7398 62.6633C65.9371 62.6633 66.1051 62.6259 66.2438 62.5513C66.3824 62.4766 66.4891 62.3753 66.5638 62.2473C66.6384 62.1139 66.6758 61.9646 66.6758 61.7993C66.6758 61.5433 66.5931 61.3326 66.4278 61.1673C66.2678 61.0019 66.0384 60.9193 65.7398 60.9193C65.5798 60.9193 65.4384 60.9433 65.3158 60.9913C65.1984 61.0393 65.0971 61.0979 65.0118 61.1673L64.4198 60.1673L66.1878 59.0153L66.1158 58.8793H63.7718V57.7593H67.7078V58.9753L65.6678 60.2713L65.0278 60.0953C65.1344 60.0633 65.2464 60.0393 65.3638 60.0233C65.4864 60.0019 65.6171 59.9913 65.7558 59.9913C66.2091 59.9913 66.5984 60.0659 66.9238 60.2153C67.2491 60.3646 67.4998 60.5753 67.6758 60.8473C67.8571 61.1139 67.9478 61.4259 67.9478 61.7833V61.8793C67.9478 62.2366 67.8571 62.5566 67.6758 62.8393C67.4998 63.1219 67.2464 63.3459 66.9158 63.5113C66.5904 63.6713 66.1984 63.7513 65.7398 63.7513ZM68.5785 62.4793V61.1113L70.7945 57.5913L71.8105 58.2553L69.9145 61.2713L70.0265 61.4393H73.5225V62.4793H68.5785ZM71.6425 63.5993V59.3913H72.8505V63.5993H71.6425ZM74.7295 64.9673L73.7455 64.5833L74.5855 62.1353L75.6735 62.5353L74.7295 64.9673ZM78.933 63.7513C78.469 63.7513 78.0716 63.6766 77.741 63.5273C77.4103 63.3726 77.141 63.1646 76.933 62.9033C76.7303 62.6419 76.5783 62.3406 76.477 61.9993C76.381 61.6526 76.333 61.2873 76.333 60.9033V60.4473C76.333 59.9139 76.4263 59.4313 76.613 58.9993C76.7996 58.5673 77.085 58.2233 77.469 57.9673C77.853 57.7113 78.341 57.5833 78.933 57.5833C79.525 57.5833 80.0103 57.7113 80.389 57.9673C80.773 58.2233 81.0583 58.5673 81.245 58.9993C81.4316 59.4313 81.525 59.9139 81.525 60.4473V60.9033C81.525 61.2873 81.4743 61.6526 81.373 61.9993C81.277 62.3406 81.125 62.6419 80.917 62.9033C80.7143 63.1646 80.4476 63.3726 80.117 63.5273C79.7916 63.6766 79.397 63.7513 78.933 63.7513ZM78.933 62.5433C79.365 62.5433 79.685 62.3939 79.893 62.0953C80.1063 61.7913 80.213 61.3219 80.213 60.6873C80.213 60.0153 80.1036 59.5326 79.885 59.2393C79.6716 58.9406 79.3543 58.7913 78.933 58.7913C78.501 58.7913 78.1783 58.9406 77.965 59.2393C77.7516 59.5326 77.645 60.0099 77.645 60.6713C77.645 61.3113 77.749 61.7833 77.957 62.0873C78.1703 62.3913 78.4956 62.5433 78.933 62.5433ZM85.0345 63.7513C84.5705 63.7513 84.1732 63.6766 83.8425 63.5273C83.5118 63.3726 83.2425 63.1646 83.0345 62.9033C82.8318 62.6419 82.6798 62.3406 82.5785 61.9993C82.4825 61.6526 82.4345 61.2873 82.4345 60.9033V60.4473C82.4345 59.9139 82.5278 59.4313 82.7145 58.9993C82.9012 58.5673 83.1865 58.2233 83.5705 57.9673C83.9545 57.7113 84.4425 57.5833 85.0345 57.5833C85.6265 57.5833 86.1118 57.7113 86.4905 57.9673C86.8745 58.2233 87.1598 58.5673 87.3465 58.9993C87.5332 59.4313 87.6265 59.9139 87.6265 60.4473V60.9033C87.6265 61.2873 87.5758 61.6526 87.4745 61.9993C87.3785 62.3406 87.2265 62.6419 87.0185 62.9033C86.8158 63.1646 86.5492 63.3726 86.2185 63.5273C85.8932 63.6766 85.4985 63.7513 85.0345 63.7513ZM85.0345 62.5433C85.4665 62.5433 85.7865 62.3939 85.9945 62.0953C86.2078 61.7913 86.3145 61.3219 86.3145 60.6873C86.3145 60.0153 86.2052 59.5326 85.9865 59.2393C85.7732 58.9406 85.4558 58.7913 85.0345 58.7913C84.6025 58.7913 84.2798 58.9406 84.0665 59.2393C83.8532 59.5326 83.7465 60.0099 83.7465 60.6713C83.7465 61.3113 83.8505 61.7833 84.0585 62.0873C84.2718 62.3913 84.5972 62.5433 85.0345 62.5433ZM91.1361 63.7513C90.6721 63.7513 90.2747 63.6766 89.9441 63.5273C89.6134 63.3726 89.3441 63.1646 89.1361 62.9033C88.9334 62.6419 88.7814 62.3406 88.6801 61.9993C88.5841 61.6526 88.5361 61.2873 88.5361 60.9033V60.4473C88.5361 59.9139 88.6294 59.4313 88.8161 58.9993C89.0027 58.5673 89.2881 58.2233 89.6721 57.9673C90.0561 57.7113 90.5441 57.5833 91.1361 57.5833C91.7281 57.5833 92.2134 57.7113 92.5921 57.9673C92.9761 58.2233 93.2614 58.5673 93.4481 58.9993C93.6347 59.4313 93.7281 59.9139 93.7281 60.4473V60.9033C93.7281 61.2873 93.6774 61.6526 93.5761 61.9993C93.4801 62.3406 93.3281 62.6419 93.1201 62.9033C92.9174 63.1646 92.6507 63.3726 92.3201 63.5273C91.9947 63.6766 91.6001 63.7513 91.1361 63.7513ZM91.1361 62.5433C91.5681 62.5433 91.8881 62.3939 92.0961 62.0953C92.3094 61.7913 92.4161 61.3219 92.4161 60.6873C92.4161 60.0153 92.3067 59.5326 92.0881 59.2393C91.8747 58.9406 91.5574 58.7913 91.1361 58.7913C90.7041 58.7913 90.3814 58.9406 90.1681 59.2393C89.9547 59.5326 89.8481 60.0099 89.8481 60.6713C89.8481 61.3113 89.9521 61.7833 90.1601 62.0873C90.3734 62.3913 90.6987 62.5433 91.1361 62.5433Z" fill="#273266" fill-opacity="0.72"/>
<path d="M104.816 62.8553V58.8313H105.952V62.8553H104.816ZM103.4 61.3673V60.3273H107.376V61.3673H103.4ZM108.91 63.5993L110.958 58.9513L110.87 58.8313H108.03V57.7593H112.454V58.5913L110.302 63.5993H108.91ZM108.03 59.7753V57.7593H109.094V59.7753H108.03ZM115.497 63.7673C115.065 63.7673 114.694 63.6979 114.385 63.5593C114.076 63.4153 113.822 63.2153 113.625 62.9593C113.433 62.6979 113.289 62.3993 113.193 62.0633C113.102 61.7273 113.057 61.3673 113.057 60.9833V60.6473C113.057 59.6766 113.305 58.9459 113.801 58.4553C114.297 57.9593 115.028 57.7113 115.993 57.7113C116.19 57.7113 116.385 57.7166 116.577 57.7273C116.769 57.7379 116.956 57.7539 117.137 57.7753V58.8713C116.961 58.8553 116.772 58.8419 116.569 58.8313C116.366 58.8153 116.158 58.8073 115.945 58.8073C115.518 58.8073 115.182 58.8793 114.937 59.0233C114.692 59.1619 114.518 59.3726 114.417 59.6553C114.316 59.9379 114.265 60.2873 114.265 60.7033V61.3113L113.977 61.5033C113.982 61.1033 114.062 60.7699 114.217 60.5033C114.377 60.2313 114.596 60.0286 114.873 59.8953C115.15 59.7619 115.47 59.6953 115.833 59.6953C116.244 59.6953 116.598 59.7779 116.897 59.9433C117.196 60.1033 117.425 60.3299 117.585 60.6233C117.745 60.9166 117.825 61.2633 117.825 61.6633C117.825 62.0846 117.729 62.4553 117.537 62.7753C117.345 63.0899 117.073 63.3353 116.721 63.5113C116.374 63.6819 115.966 63.7673 115.497 63.7673ZM115.457 62.6793C115.692 62.6793 115.889 62.6366 116.049 62.5513C116.214 62.4659 116.34 62.3513 116.425 62.2073C116.516 62.0579 116.561 61.8846 116.561 61.6873C116.561 61.4846 116.518 61.3113 116.433 61.1673C116.348 61.0179 116.225 60.9033 116.065 60.8233C115.91 60.7379 115.718 60.6953 115.489 60.6953C115.281 60.6953 115.089 60.7326 114.913 60.8073C114.742 60.8766 114.606 60.9859 114.505 61.1353C114.404 61.2793 114.353 61.4633 114.353 61.6873C114.353 61.8793 114.393 62.0499 114.473 62.1993C114.558 62.3486 114.684 62.4659 114.849 62.5513C115.014 62.6366 115.217 62.6793 115.457 62.6793ZM120.093 63.5993L122.221 57.7593H123.293L121.173 63.5993H120.093ZM119.693 60.9673C119.379 60.9673 119.115 60.8979 118.901 60.7593C118.693 60.6153 118.536 60.4259 118.429 60.1913C118.328 59.9513 118.277 59.6873 118.277 59.3993V59.1913C118.277 58.8873 118.331 58.6179 118.437 58.3833C118.544 58.1486 118.704 57.9646 118.917 57.8313C119.131 57.6979 119.389 57.6313 119.693 57.6313C120.003 57.6313 120.261 57.6979 120.469 57.8313C120.683 57.9646 120.843 58.1486 120.949 58.3833C121.056 58.6179 121.109 58.8873 121.109 59.1913V59.3993C121.109 59.6873 121.056 59.9513 120.949 60.1913C120.848 60.4259 120.693 60.6153 120.485 60.7593C120.277 60.8979 120.013 60.9673 119.693 60.9673ZM119.693 60.1113C119.859 60.1113 119.979 60.0526 120.053 59.9353C120.133 59.8126 120.173 59.6019 120.173 59.3033C120.173 58.9886 120.133 58.7726 120.053 58.6553C119.973 58.5379 119.853 58.4793 119.693 58.4793C119.533 58.4793 119.413 58.5379 119.333 58.6553C119.253 58.7726 119.213 58.9859 119.213 59.2953C119.213 59.5939 119.253 59.8046 119.333 59.9273C119.413 60.0499 119.533 60.1113 119.693 60.1113ZM123.669 63.7353C123.349 63.7353 123.085 63.6659 122.877 63.5273C122.669 63.3886 122.512 63.2019 122.405 62.9673C122.304 62.7273 122.253 62.4633 122.253 62.1753V61.9673C122.253 61.6579 122.307 61.3859 122.413 61.1513C122.52 60.9166 122.677 60.7326 122.885 60.5993C123.099 60.4659 123.36 60.3993 123.669 60.3993C123.979 60.3993 124.237 60.4659 124.445 60.5993C124.653 60.7326 124.811 60.9166 124.917 61.1513C125.024 61.3859 125.077 61.6579 125.077 61.9673V62.1753C125.077 62.4633 125.024 62.7273 124.917 62.9673C124.816 63.2019 124.661 63.3886 124.453 63.5273C124.251 63.6659 123.989 63.7353 123.669 63.7353ZM123.669 62.8873C123.835 62.8873 123.955 62.8286 124.029 62.7113C124.109 62.5886 124.149 62.3779 124.149 62.0793C124.149 61.7593 124.109 61.5433 124.029 61.4313C123.949 61.3139 123.829 61.2553 123.669 61.2553C123.509 61.2553 123.387 61.3139 123.301 61.4313C123.221 61.5433 123.181 61.7566 123.181 62.0713C123.181 62.3699 123.221 62.5806 123.301 62.7033C123.381 62.8259 123.504 62.8873 123.669 62.8873Z" fill="url(#paint0_linear_5_10152)"/>
<line x1="211.098" y1="107.632" x2="70.6371" y2="107.632" stroke="#857DBA" stroke-width="0.707483"/>
<line x1="70.9909" y1="68.1878" x2="70.9909" y2="107.278" stroke="#857DBA" stroke-width="0.707483"/>
<rect opacity="0.1" x="72.6255" y="100.653" width="14.5761" height="6.62552" fill="url(#paint1_linear_5_10152)"/>
<rect opacity="0.1" x="90.5137" y="98.6652" width="14.5761" height="8.61318" fill="url(#paint2_linear_5_10152)"/>
<rect opacity="0.1" x="108.403" y="90.7146" width="14.5761" height="16.5638" fill="url(#paint3_linear_5_10152)"/>
<rect x="126.292" y="86.7392" width="14.5761" height="20.5391" fill="url(#paint4_linear_5_10152)"/>
<rect x="144.181" y="80.1137" width="14.5761" height="27.1646" fill="url(#paint5_linear_5_10152)"/>
<rect opacity="0.1" x="162.07" y="100.653" width="14.5761" height="6.62552" fill="url(#paint6_linear_5_10152)"/>
<rect x="179.959" y="90.7146" width="14.5761" height="16.5638" fill="url(#paint7_linear_5_10152)"/>
<rect x="197.848" y="70.1754" width="14.5761" height="37.1029" fill="url(#paint8_linear_5_10152)"/>
<line x1="70.6372" y1="74.5045" x2="67.3244" y2="74.5045" stroke="#857DBA" stroke-width="0.707483"/>
<line x1="70.6372" y1="84.4428" x2="67.3244" y2="84.4428" stroke="#857DBA" stroke-width="0.707483"/>
<line x1="70.6372" y1="94.3811" x2="67.3244" y2="94.3811" stroke="#857DBA" stroke-width="0.707483"/>
<line x1="70.6372" y1="104.319" x2="67.3244" y2="104.319" stroke="#857DBA" stroke-width="0.707483"/>
<line x1="80.2668" y1="107.941" x2="80.2668" y2="110.591" stroke="#857DBA" stroke-width="0.707483"/>
<line x1="98.156" y1="107.941" x2="98.156" y2="110.591" stroke="#857DBA" stroke-width="0.707483"/>
<line x1="116.045" y1="107.941" x2="116.045" y2="110.591" stroke="#857DBA" stroke-width="0.707483"/>
<line x1="133.934" y1="107.941" x2="133.934" y2="110.591" stroke="#857DBA" stroke-width="0.707483"/>
<line x1="151.823" y1="107.941" x2="151.823" y2="110.591" stroke="#857DBA" stroke-width="0.707483"/>
<line x1="169.711" y1="107.941" x2="169.711" y2="110.591" stroke="#857DBA" stroke-width="0.707483"/>
<line x1="187.6" y1="107.941" x2="187.6" y2="110.591" stroke="#857DBA" stroke-width="0.707483"/>
<line x1="205.489" y1="107.941" x2="205.489" y2="110.591" stroke="#857DBA" stroke-width="0.707483"/>
<defs>
<filter id="filter0_d_5_10152" x="0.839272" y="0.906563" width="272.77" height="190.613" filterUnits="userSpaceOnUse" color-interpolation-filters="sRGB">
<feFlood flood-opacity="0" result="BackgroundImageFix"/>
<feColorMatrix in="SourceAlpha" type="matrix" values="0 0 0 0 0 0 0 0 0 0 0 0 0 0 0 0 0 0 127 0" result="hardAlpha"/>
<feOffset dy="17.7558"/>
<feGaussianBlur stdDeviation="23.3045"/>
<feComposite in2="hardAlpha" operator="out"/>
<feColorMatrix type="matrix" values="0 0 0 0 0.439216 0 0 0 0 0.564706 0 0 0 0 0.690196 0 0 0 0.15 0"/>
<feBlend mode="normal" in2="BackgroundImageFix" result="effect1_dropShadow_5_10152"/>
<feBlend mode="normal" in="SourceGraphic" in2="effect1_dropShadow_5_10152" result="shape"/>
</filter>
<linearGradient id="paint0_linear_5_10152" x1="102.511" y1="54.6271" x2="127.086" y2="63.4194" gradientUnits="userSpaceOnUse">
<stop stop-color="#FF6B4A"/>
<stop offset="1" stop-color="#FF8D74"/>
</linearGradient>
<linearGradient id="paint1_linear_5_10152" x1="72.3154" y1="100.009" x2="88.0415" y2="105.39" gradientUnits="userSpaceOnUse">
<stop stop-color="#FF6B4A"/>
<stop offset="1" stop-color="#FF8D74"/>
</linearGradient>
<linearGradient id="paint2_linear_5_10152" x1="90.2035" y1="97.8278" x2="106.633" y2="102.153" gradientUnits="userSpaceOnUse">
<stop stop-color="#FF6B4A"/>
<stop offset="1" stop-color="#FF8D74"/>
</linearGradient>
<linearGradient id="paint3_linear_5_10152" x1="108.093" y1="89.1042" x2="125.337" y2="91.4648" gradientUnits="userSpaceOnUse">
<stop stop-color="#FF6B4A"/>
<stop offset="1" stop-color="#FF8D74"/>
</linearGradient>
<linearGradient id="paint4_linear_5_10152" x1="125.982" y1="84.7424" x2="143.338" y2="86.6584" gradientUnits="userSpaceOnUse">
<stop stop-color="#FF6B4A"/>
<stop offset="1" stop-color="#FF8D74"/>
</linearGradient>
<linearGradient id="paint5_linear_5_10152" x1="143.871" y1="77.4727" x2="161.317" y2="78.9289" gradientUnits="userSpaceOnUse">
<stop stop-color="#FF6B4A"/>
<stop offset="1" stop-color="#FF8D74"/>
</linearGradient>
<linearGradient id="paint6_linear_5_10152" x1="161.76" y1="100.009" x2="177.486" y2="105.39" gradientUnits="userSpaceOnUse">
<stop stop-color="#FF6B4A"/>
<stop offset="1" stop-color="#FF8D74"/>
</linearGradient>
<linearGradient id="paint7_linear_5_10152" x1="179.649" y1="89.1042" x2="196.894" y2="91.4648" gradientUnits="userSpaceOnUse">
<stop stop-color="#FF6B4A"/>
<stop offset="1" stop-color="#FF8D74"/>
</linearGradient>
<linearGradient id="paint8_linear_5_10152" x1="197.538" y1="66.5682" x2="215.04" y2="67.6378" gradientUnits="userSpaceOnUse">
<stop stop-color="#FF6B4A"/>
<stop offset="1" stop-color="#FF8D74"/>
</linearGradient>
</defs>
</svg>
