<svg width="24" height="24" viewBox="0 0 24 24" fill="none" xmlns="http://www.w3.org/2000/svg">
<path d="M3.5 7V17.3C3.5 17.81 4.09 18.11 4.5 17.8L6.63 16.19C6.73 16.1 6.86 16.06 7 16.06H15.07C16.45 16.06 17.57 14.94 17.57 13.56V7C17.57 5.62 16.45 4.5 15.07 4.5H6C4.62 4.5 3.5 5.62 3.5 7Z" stroke="white" stroke-width="1.2" stroke-miterlimit="10" stroke-linecap="round" stroke-linejoin="round"/>
<path d="M11.2699 8.86011H8.17993" stroke="white" stroke-width="1.2" stroke-miterlimit="10" stroke-linecap="round" stroke-linejoin="round"/>
<path d="M12.8899 11.5901H8.17993" stroke="white" stroke-width="1.2" stroke-miterlimit="10" stroke-linecap="round" stroke-linejoin="round"/>
<path d="M20.2399 9.34009V19.8301C20.2399 20.2701 19.7299 20.5301 19.3799 20.2601L17.5499 18.8701C17.4599 18.8001 17.3399 18.7601 17.2299 18.7601H8.6499" stroke="white" stroke-width="1.2" stroke-miterlimit="10" stroke-linecap="round" stroke-linejoin="round"/>
</svg>
