<svg width="20" height="20" viewBox="0 0 20 20" fill="none" xmlns="http://www.w3.org/2000/svg">
<path d="M15.4168 3.9917C13.2502 7.78337 9.07516 9.95837 4.72516 9.5667L2.0835 9.32503" stroke="url(#paint0_linear_101_485)" stroke-miterlimit="10" stroke-linecap="round" stroke-linejoin="round"/>
<path d="M4.5835 16.1417C6.75016 12.3501 10.9252 10.1751 15.2752 10.5667L17.9168 10.8084" stroke="url(#paint1_linear_101_485)" stroke-miterlimit="10" stroke-linecap="round" stroke-linejoin="round"/>
<path d="M9.99984 18.3334C14.6022 18.3334 18.3332 14.6025 18.3332 10.0001C18.3332 5.39771 14.6022 1.66675 9.99984 1.66675C5.39746 1.66675 1.6665 5.39771 1.6665 10.0001C1.6665 14.6025 5.39746 18.3334 9.99984 18.3334Z" stroke="url(#paint2_linear_101_485)" stroke-miterlimit="10" stroke-linecap="round" stroke-linejoin="round"/>
<path d="M6.3584 2.5L9.0084 5.79167C10.7834 7.99167 12.0417 10.55 12.7084 13.2917L13.7167 17.45" stroke="url(#paint3_linear_101_485)" stroke-miterlimit="10" stroke-linecap="round" stroke-linejoin="round"/>
<defs>
<linearGradient id="paint0_linear_101_485" x1="1.79981" y1="3.44529" x2="15.9437" y2="8.66483" gradientUnits="userSpaceOnUse">
<stop stop-color="#FF6B4A"/>
<stop offset="1" stop-color="#FF8D74"/>
</linearGradient>
<linearGradient id="paint1_linear_101_485" x1="4.29981" y1="9.97507" x2="18.4437" y2="15.1946" gradientUnits="userSpaceOnUse">
<stop stop-color="#FF6B4A"/>
<stop offset="1" stop-color="#FF8D74"/>
</linearGradient>
<linearGradient id="paint2_linear_101_485" x1="1.31189" y1="0.0463807" x2="20.9249" y2="3.09726" gradientUnits="userSpaceOnUse">
<stop stop-color="#FF6B4A"/>
<stop offset="1" stop-color="#FF8D74"/>
</linearGradient>
<linearGradient id="paint3_linear_101_485" x1="6.20184" y1="1.04653" x2="15.0188" y2="1.72159" gradientUnits="userSpaceOnUse">
<stop stop-color="#FF6B4A"/>
<stop offset="1" stop-color="#FF8D74"/>
</linearGradient>
</defs>
</svg>
