<svg width="20" height="20" viewBox="0 0 20 20" fill="none" xmlns="http://www.w3.org/2000/svg">
<path d="M11.6667 7.75V10.1667H13.8333C14 10.1667 14.0833 10.3333 14.0833 10.5L13.75 12.0833C13.75 12.1667 13.5833 12.25 13.5 12.25H11.6667V18.3333H9.16667V12.3333H7.75C7.58333 12.3333 7.5 12.25 7.5 12.0833V10.5C7.5 10.3333 7.58333 10.25 7.75 10.25H9.16667V7.5C9.16667 6.08333 10.25 5 11.6667 5H13.9167C14.0833 5 14.1667 5.08333 14.1667 5.25V7.25C14.1667 7.41667 14.0833 7.5 13.9167 7.5H11.9167C11.75 7.5 11.6667 7.58333 11.6667 7.75Z" stroke="url(#paint0_linear_101_226)" stroke-miterlimit="10" stroke-linecap="round"/>
<path d="M12.5001 18.3334H7.50008C3.33341 18.3334 1.66675 16.6667 1.66675 12.5001V7.50008C1.66675 3.33341 3.33341 1.66675 7.50008 1.66675H12.5001C16.6667 1.66675 18.3334 3.33341 18.3334 7.50008V12.5001C18.3334 16.6667 16.6667 18.3334 12.5001 18.3334Z" stroke="url(#paint1_linear_101_226)" stroke-linecap="round" stroke-linejoin="round"/>
<defs>
<linearGradient id="paint0_linear_101_226" x1="7.35816" y1="3.70371" x2="15.3449" y2="4.32489" gradientUnits="userSpaceOnUse">
<stop stop-color="#FF6B4A"/>
<stop offset="1" stop-color="#FF8D74"/>
</linearGradient>
<linearGradient id="paint1_linear_101_226" x1="1.31214" y1="0.0463807" x2="20.9251" y2="3.09726" gradientUnits="userSpaceOnUse">
<stop stop-color="#FF6B4A"/>
<stop offset="1" stop-color="#FF8D74"/>
</linearGradient>
</defs>
</svg>
