<svg width="146" height="46" viewBox="0 0 146 46" fill="none" xmlns="http://www.w3.org/2000/svg">
<g clip-path="url(#clip0_51_198)">
<path d="M18.6515 16.6864V21.5223H30.3219C30.0121 24.1975 29.0826 26.2553 27.6367 27.5929C25.9842 29.2392 23.299 31.0912 18.6515 31.0912C11.5253 31.0912 5.94833 25.3293 5.94833 18.2298C5.94833 11.1303 11.4221 5.36837 18.6515 5.36837C22.4728 5.36837 25.3646 6.91174 27.4301 8.86667L30.8383 5.47126C27.9465 2.69319 24.022 0.532471 18.6515 0.532471C8.84011 0.532471 0.577881 8.45511 0.577881 18.2298C0.577881 28.0045 8.84011 35.9271 18.6515 35.9271C23.9187 35.9271 27.9465 34.178 31.0449 30.9883C34.2465 27.7987 35.2793 23.2715 35.2793 19.6703C35.2793 18.5385 35.176 17.5095 35.0727 16.6864H18.6515Z" fill="#4285F4"/>
<path d="M49.7383 12.6736C43.4383 12.6736 38.1711 17.5095 38.1711 24.0946C38.1711 30.6796 43.335 35.5155 49.7383 35.5155C56.1415 35.5155 61.3054 30.7825 61.3054 24.1975C61.3054 17.5095 56.1415 12.6736 49.7383 12.6736ZM49.7383 31.0912C46.2268 31.0912 43.2318 28.2102 43.2318 24.1975C43.2318 20.0818 46.2268 17.3038 49.7383 17.3038C53.2497 17.3038 56.2448 20.0818 56.2448 24.1975C56.2448 28.2102 53.2497 31.0912 49.7383 31.0912Z" fill="#EA4335"/>
<path d="M106.231 15.2459H106.025C104.889 13.9083 102.72 12.6736 99.9313 12.6736C94.1478 12.6736 89.1904 17.6124 89.1904 24.0946C89.1904 30.4739 94.1478 35.5155 99.9313 35.5155C102.72 35.5155 104.889 34.2808 106.025 32.9432H106.231V34.5895C106.231 38.9109 103.856 41.2774 100.138 41.2774C97.0395 41.2774 95.1805 39.1167 94.3543 37.1618L90.0166 39.0138C91.256 41.9977 94.6642 45.8047 100.241 45.8047C106.128 45.8047 111.189 42.3064 111.189 33.8693V13.291H106.438V15.2459H106.231ZM100.448 31.0912C96.9363 31.0912 94.3543 28.1074 94.3543 24.1975C94.3543 20.1847 97.0395 17.3038 100.448 17.3038C103.856 17.3038 106.541 20.2876 106.541 24.3004C106.644 28.2102 103.959 31.0912 100.448 31.0912Z" fill="#4285F4"/>
<path d="M75.4543 12.6736C69.1544 12.6736 63.8872 17.5095 63.8872 24.0946C63.8872 30.6796 69.0511 35.5155 75.4543 35.5155C81.8576 35.5155 87.0215 30.7825 87.0215 24.1975C87.0215 17.5095 81.8576 12.6736 75.4543 12.6736ZM75.4543 31.0912C71.9429 31.0912 68.9478 28.2102 68.9478 24.1975C68.9478 20.0818 71.9429 17.3038 75.4543 17.3038C78.9658 17.3038 81.9608 20.0818 81.9608 24.1975C81.9608 28.2102 78.9658 31.0912 75.4543 31.0912Z" fill="#FBBC05"/>
<path d="M115.01 1.04691H119.967V35.6184H115.01V1.04691Z" fill="#34A853"/>
<path d="M135.252 31.0912C132.67 31.0912 130.914 29.9594 129.675 27.5929L145.064 21.3165L144.547 19.9789C143.618 17.4066 140.623 12.6736 134.736 12.6736C128.849 12.6736 123.892 17.3038 123.892 24.0946C123.892 30.4739 128.746 35.5155 135.252 35.5155C140.519 35.5155 143.514 32.3259 144.857 30.4739L140.932 27.9016C139.59 29.8565 137.834 31.0912 135.252 31.0912ZM134.942 16.9951C137.008 16.9951 138.764 18.024 139.28 19.4645L128.952 23.7859C128.849 19.0529 132.36 16.9951 134.942 16.9951Z" fill="#EA4335"/>
</g>
<defs>
<clipPath id="clip0_51_198">
<rect width="144.486" height="45.2722" fill="white" transform="translate(0.577881 0.532471)"/>
</clipPath>
</defs>
</svg>
