<svg width="497" height="410" viewBox="0 0 497 410" fill="none" xmlns="http://www.w3.org/2000/svg">
<path d="M111.488 287.714C111.488 287.714 122.159 276.403 109.781 266.799C109.781 266.799 101.671 262.531 103.805 250.58C105.939 238.842 102.098 229.452 91.0005 228.598C79.903 227.745 58.775 235.001 59.2018 242.683C58.775 243.964 58.5616 245.885 59.4153 248.019C61.7628 255.275 65.1774 264.025 62.403 266.799C60.9091 268.507 58.3482 270.854 54.5067 272.348C45.5433 276.403 40.208 281.525 40.208 291.555C40.208 306.921 67.3116 299.025 67.3116 299.025L111.488 287.714Z" fill="white"/>
<path d="M281.366 153.263C281.366 186.342 308.256 213.232 341.336 213.232C374.415 213.232 401.305 186.342 401.305 153.263C401.305 120.184 374.415 93.2937 341.336 93.2937C308.256 93.2937 281.366 120.184 281.366 153.263Z" fill="url(#paint0_linear_5_9718)"/>
<path d="M124.079 388.445H311.03C314.658 388.445 317.432 385.457 317.432 382.043V150.702C317.432 147.074 314.444 144.3 311.03 144.3H124.079C120.451 144.3 117.677 147.287 117.677 150.702V382.043C117.677 385.671 120.451 388.445 124.079 388.445Z" fill="white"/>
<path d="M445.268 316.311C445.268 316.311 453.377 319.513 458.286 326.128C462.981 332.744 473.865 348.324 477.066 359.634C480.481 370.732 483.896 376.281 484.109 386.098C484.322 395.915 484.109 404.238 480.908 408.933L381.457 409.146L376.335 344.269C376.335 344.269 382.951 329.33 389.78 322.5C396.823 315.671 405.573 311.403 412.189 311.616L445.268 316.311Z" fill="url(#paint1_linear_5_9718)"/>
<path d="M374.414 409.36H291.183C285.634 409.36 280.939 405.945 279.018 401.036L259.384 344.055C256.61 336.159 262.799 328.049 271.549 328.049H354.78C360.329 328.049 365.024 331.464 366.945 336.372L386.579 393.354C389.14 401.25 382.951 409.36 374.414 409.36Z" fill="#001724"/>
<path d="M196.427 53.5987C196.427 53.5987 202.616 46.7694 201.549 42.2877C200.696 37.5926 196.427 33.9646 193.226 33.5378C189.812 33.1109 185.757 35.2451 185.757 35.2451C185.757 35.2451 182.769 32.0439 175.513 33.9646C168.257 35.8853 164.202 44.6353 164.202 44.6353C164.202 44.6353 156.519 45.7024 156.519 53.1719C156.519 60.6414 161.214 67.8974 167.19 72.3791C172.952 76.8608 172.312 77.0742 173.806 76.8608C175.513 76.6474 178.074 76.0071 176.793 69.3913L180.208 59.3608C180.208 59.3608 185.757 58.934 182.129 51.8913C182.129 51.8913 187.251 45.9158 193.866 46.1292L196.427 53.5987Z" fill="url(#paint2_linear_5_9718)"/>
<path d="M122.159 383.963V409.36H37.0069L37.2203 391.219C37.2203 391.219 26.3362 387.165 22.9216 375C19.507 362.835 22.9216 352.165 24.4155 346.83C25.9094 341.494 32.0984 324.848 35.513 317.165C38.9277 309.695 43.1959 299.025 45.5435 294.97C47.891 290.915 52.7995 284.086 60.6958 281.311C68.5922 278.537 77.9824 278.537 77.9824 278.537L93.9884 278.11C93.9884 278.11 99.1104 278.537 106.58 281.098C114.049 283.872 118.531 285.153 126.427 283.872C134.11 282.592 139.872 276.403 143.074 271.068C146.275 265.519 149.049 254.848 149.903 250.366C150.543 245.885 150.97 240.122 150.97 240.122C150.97 240.122 152.891 237.348 165.482 237.775C178.287 238.415 181.488 240.122 181.702 240.763C181.915 241.189 180.635 254.208 177.433 265.519C174.446 276.83 167.83 291.128 160.36 299.878C152.677 308.628 140.086 319.299 125.36 321.433L122.159 383.963Z" fill="url(#paint3_linear_5_9718)"/>
<path d="M67.5253 319.512L120.452 319.939C120.452 319.939 130.482 321.22 131.336 331.891C132.19 342.561 130.909 372.226 130.909 372.226C130.909 372.226 129.629 382.896 120.452 384.177L69.4461 383.537C69.4461 383.537 78.196 378.201 85.8789 371.585C93.5618 364.97 97.8301 360.061 97.8301 360.061C97.8301 360.061 91.4277 344.055 81.3973 336.372L56.001 354.512C56.001 354.726 64.9644 331.89 67.5253 319.512Z" fill="#001724"/>
<path d="M184.69 320.153V345.976H210.513C210.513 360.275 198.989 371.799 184.69 371.799C170.391 371.799 158.867 360.275 158.867 345.976C158.867 331.677 170.391 320.153 184.69 320.153Z" fill="#001724"/>
<path d="M217.982 336.372H192.372V310.762C192.372 310.762 202.829 310.122 210.939 318.659C219.049 327.409 217.982 336.372 217.982 336.372Z" fill="url(#paint4_linear_5_9718)"/>
<path d="M403.653 275.549C403.653 275.549 401.305 277.897 400.878 280.885C399.811 287.287 403.653 291.555 403.653 291.555C403.653 291.555 403.226 303.293 411.762 303.08L412.403 312.256C412.403 312.256 411.549 322.714 414.75 323.14C417.951 323.567 422.86 316.738 422.86 316.738C422.86 316.738 419.232 311.83 419.232 307.561C419.445 303.293 419.232 300.092 423.073 294.543C426.915 288.994 427.128 285.153 426.274 283.019C425.421 280.885 423.287 275.763 423.287 274.269C423.287 272.775 424.14 267.653 424.14 267.653C424.14 267.653 422.22 269.36 422.006 271.281C421.793 273.202 422.006 275.549 422.006 275.549L417.525 275.336L403.653 275.549Z" fill="white"/>
<path d="M427.981 395.701C427.981 395.701 416.67 390.152 414.323 390.152C411.975 389.939 410.481 389.939 410.481 389.939C410.481 389.939 406.213 386.524 401.091 389.085C401.091 389.085 398.53 386.951 395.756 387.165C392.981 387.591 391.487 390.579 391.487 390.579C391.487 390.579 392.768 395.274 392.554 397.195C392.341 399.116 390.847 405.518 385.938 407.652C385.938 407.652 387.859 410.213 392.554 407.225C392.554 407.225 396.182 409.787 401.304 408.72C401.304 408.72 404.292 409.573 405.999 408.933C407.707 408.293 409.201 407.012 410.054 406.158C410.695 405.305 412.402 401.89 412.402 401.89C412.402 401.89 412.615 409.36 421.792 408.933C421.792 408.933 424.993 407.652 426.914 403.384C428.835 399.116 427.981 395.701 427.981 395.701Z" fill="white"/>
<path d="M83.1045 338.079C83.1045 338.079 85.2386 334.025 86.9459 330.183C88.6533 326.342 89.7203 323.141 92.2813 323.567C94.8423 323.994 93.9886 328.049 93.5618 329.543C93.135 331.037 91.2142 336.159 93.135 336.799C95.0557 337.439 97.8301 336.159 100.818 333.598C103.806 331.037 108.714 326.128 108.714 326.128C108.714 326.128 111.489 324.208 113.409 325.702C115.117 327.195 113.623 329.543 113.623 329.543C113.623 329.543 115.97 329.329 116.611 330.397C117.251 331.464 117.464 333.171 116.824 333.811C116.824 333.811 119.812 336.159 117.891 339.573C115.97 342.988 108.501 349.604 106.153 351.098C104.019 352.805 98.6837 356.22 96.1228 356.647C96.1228 356.647 93.3484 350.884 90.1472 346.403C87.3728 342.348 83.1045 338.079 83.1045 338.079Z" fill="white"/>
<path d="M156.305 242.683C156.305 242.683 155.665 232.013 156.732 227.744C157.799 223.476 159.08 220.702 162.708 219.635C166.336 218.568 169.75 217.927 169.75 217.927H173.592L171.244 222.409L174.872 224.33L177.433 220.062C177.433 220.062 182.342 221.342 183.195 225.183C183.836 229.025 183.622 235.854 181.702 239.909C179.567 243.964 177.86 246.525 173.378 246.311C168.897 246.098 166.549 245.671 163.988 244.391C161.214 243.11 161 242.257 161 242.257L160.147 243.537L156.305 242.683Z" fill="white"/>
<path d="M97.4031 238.842L100.391 252.927C100.391 252.927 101.885 260.184 101.245 263.598C100.604 267.013 100.178 271.494 93.1349 271.708L93.7751 278.11C93.7751 278.11 98.6836 291.555 92.708 291.769C86.519 291.982 83.9581 287.5 81.8239 284.726C79.6898 281.952 77.769 278.537 77.769 278.537L77.3422 263.385C77.3422 263.385 70.513 265.092 70.2995 258.69C70.0861 252.501 77.3422 253.354 77.3422 253.354C77.3422 253.354 85.4519 248.872 89.2934 245.885C93.1348 243.11 97.4031 238.842 97.4031 238.842Z" fill="white"/>
<path d="M321.061 367.104C323.622 371.586 323.408 376.494 320.421 377.988C317.433 379.695 313.165 377.348 310.604 373.079C308.043 368.598 308.256 363.689 311.244 362.195C314.232 360.488 318.713 362.622 321.061 367.104Z" fill="url(#paint5_linear_5_9718)"/>
<path d="M312.525 140.245C314.659 139.604 316.58 139.178 318.501 138.537C319.568 138.324 320.635 137.897 321.702 137.684C326.183 142.806 330.452 147.074 335.36 150.915C336.854 152.196 338.561 152.409 340.269 151.982C342.189 151.556 343.683 150.702 345.391 149.635C349.232 147.074 352.647 144.086 356.061 140.885C362.037 134.909 367.586 128.507 372.708 121.891C372.921 121.464 373.348 121.464 373.775 121.464C376.976 122.318 380.177 123.172 383.378 124.239C377.403 135.55 370.573 145.793 362.677 155.397C358.622 160.306 354.354 164.787 349.446 168.629C347.738 169.909 346.031 170.763 344.324 171.83C340.482 173.964 336.427 173.751 332.586 172.043C328.744 170.336 325.543 167.562 322.982 164.147C319.354 159.239 316.793 153.69 314.872 147.928C313.805 145.367 313.165 142.806 312.525 140.245Z" fill="white"/>
<path d="M445.268 316.311C445.268 316.311 432.463 322.287 425.847 318.445C419.231 314.604 418.804 308.628 419.018 304.36C419.231 299.879 423.073 294.116 424.78 291.769C426.487 289.421 426.701 286.86 426.274 283.232C425.634 279.604 423.286 277.257 423.286 274.482C423.073 271.708 424.78 267.013 424.78 267.013C424.78 267.013 422.006 269.36 422.006 272.135C422.006 274.909 422.006 275.763 422.006 275.763L419.445 275.976C419.445 275.976 418.591 275.122 417.951 274.909C417.31 274.909 415.603 276.189 415.603 276.189L407.28 275.763C407.28 275.763 405.573 274.696 404.719 275.122C403.865 275.549 403.225 275.763 403.225 275.763H402.158C402.158 275.763 401.945 269.36 403.012 266.372C404.079 263.385 405.146 261.037 411.121 260.183C416.884 259.33 422.859 258.69 428.195 261.891C428.195 261.891 442.28 260.824 443.347 273.415C443.347 273.415 440.573 289.421 439.932 293.689C439.292 298.171 438.225 302.439 442.707 303.933C447.188 305.427 452.524 306.067 453.804 310.976C455.085 316.098 454.658 318.232 452.524 319.939L445.268 316.311Z" fill="#001724"/>
<path d="M411.762 303.08L412.402 311.83L407.067 312.897C407.067 312.897 404.719 311.403 405.146 307.988C405.573 304.787 407.28 302.226 407.28 302.226C407.28 302.226 410.908 303.72 411.762 303.08Z" fill="#001724"/>
<path d="M243.378 89.2387C243.378 89.2387 235.055 116.342 234.415 118.05C233.775 119.757 231.854 131.495 225.025 130.854C218.409 130.428 216.275 123.172 215.421 121.037C214.567 118.903 209.445 106.098 205.604 100.763C201.762 95.4278 195.787 91.7997 189.598 91.3729C183.409 90.946 164.202 90.5192 159.08 93.9339C153.958 97.3485 144.994 108.659 138.165 122.745C131.336 136.83 129.629 138.324 128.988 144.086L144.354 144.513L190.025 144.3C190.025 144.3 195.573 153.05 201.976 157.745C201.976 157.745 206.884 160.732 209.659 162.226C212.433 163.507 220.329 166.281 228.226 166.068C236.122 165.854 247.22 163.507 254.262 154.117C261.305 144.726 263.866 138.324 265.573 132.989C267.281 127.44 270.268 115.916 271.549 108.659C272.829 101.403 274.11 94.3607 274.11 94.3607C274.11 94.3607 271.762 90.0924 259.811 88.1717C247.646 86.0375 243.378 89.2387 243.378 89.2387Z" fill="#001724"/>
<path d="M163.775 244.177L161.428 248.446C161.428 248.446 159.507 249.086 158.653 248.446C157.8 247.805 158.226 246.098 158.226 246.098L160.574 241.83C160.574 242.043 162.495 244.177 163.775 244.177Z" fill="white"/>
<path d="M191.305 86.0376V81.7693C191.305 81.7693 198.561 80.9157 199.842 78.1414C201.336 75.367 201.336 73.0194 200.695 71.5255C200.269 70.245 199.628 66.4036 199.628 66.4036C199.628 66.4036 203.897 63.4157 203.256 61.9218C202.829 60.2145 196.854 56.3731 196.854 56.3731L194.293 45.7024C194.293 45.7024 184.689 46.9829 182.128 52.1048C182.128 52.1048 184.476 58.7206 179.994 59.1475C179.994 59.1475 177.86 56.1597 174.232 57.0133C170.604 57.867 169.323 59.7877 169.11 63.4158C168.897 67.0438 172.311 69.6048 176.58 69.178C176.58 69.178 177.647 76.0071 175.299 76.4339C172.952 76.8608 171.458 75.5804 171.458 75.5804L170.604 84.1169L191.305 86.0376Z" fill="white"/>
<path d="M248.927 93.2937C248.927 93.2937 249.994 87.9583 249.567 81.1291C249.141 74.2998 249.994 73.2328 249.354 70.245C248.714 67.2572 245.939 63.2023 248.5 62.562C251.061 61.9218 254.476 62.1353 255.97 64.9096C257.25 67.4706 258.531 73.873 259.384 74.7266C260.238 75.5803 261.945 76.434 263.226 76.0072C264.293 75.5804 265.147 74.7267 266 73.0194C266.641 71.312 268.561 65.9766 271.122 63.6291C273.683 61.0681 276.884 58.5072 279.445 59.3608C282.006 60.2145 282.22 62.3487 282.22 62.3487C282.22 62.3487 286.061 62.3486 286.061 66.1901C286.061 66.1901 285.634 67.684 283.714 70.4584C281.793 73.2327 280.299 75.1535 279.232 77.7145C278.165 80.2755 276.244 85.6108 273.256 87.9583C270.055 90.5193 267.494 91.7998 267.067 96.068C267.067 96.068 264.933 96.4949 258.744 95.8547C252.342 94.7876 248.927 93.2937 248.927 93.2937Z" fill="white"/>
<path d="M249.567 87.745L248.5 93.2937C248.5 93.2937 242.525 91.1595 242.738 89.6656C243.165 87.9583 249.567 87.745 249.567 87.745Z" fill="#3A3A3A"/>
<path d="M269.628 90.5194C269.628 90.5194 267.067 93.5072 267.067 95.8548C267.067 95.8548 273.683 95.8547 274.11 94.3608C274.537 92.8669 269.628 90.5194 269.628 90.5194Z" fill="#3A3A3A"/>
<path d="M197.708 92.44L193.867 86.0376C193.867 86.0376 171.031 83.4767 166.976 83.9035L161.854 91.373C161.854 91.373 179.568 89.8791 184.69 90.3059C189.812 90.7327 197.708 92.44 197.708 92.44Z" fill="white"/>
<path d="M185.97 81.3426L191.305 85.6108V81.9828L185.97 81.3426Z" fill="#CCCCCC"/>
<path d="M428.408 395.701L417.311 390.579C417.311 390.579 411.975 389.085 410.695 389.939C410.695 389.939 406.64 387.378 402.158 388.445C402.158 388.445 403.652 386.098 406.213 384.604C408.774 383.11 413.896 381.402 417.097 382.256C420.085 383.323 427.128 386.097 428.408 395.701Z" fill="#001724"/>
<path d="M418.164 409.146H406.854C406.854 409.146 411.549 405.945 412.189 402.317C412.189 402.317 415.603 408.506 418.164 409.146Z" fill="#001724"/>
<path d="M268.988 327.836L274.963 324.421H358.408C358.408 324.421 368.225 322.927 372.494 333.171L391.914 391.86C391.914 391.86 397.463 408.079 378.683 409.36C378.469 408.72 386.579 405.305 387.006 398.689C387.646 392.287 381.03 377.348 381.03 377.348L366.091 334.238C366.091 334.238 360.756 327.836 355.847 328.049L268.988 327.836Z" fill="white"/>
<path d="M246.152 37.5927C246.152 49.9707 256.183 60.0012 268.561 60.0012C280.939 60.0012 290.969 49.9707 290.969 37.5927C290.969 25.2147 280.939 15.1843 268.561 15.1843C256.183 15.1843 246.152 25.2147 246.152 37.5927Z" fill="url(#paint6_linear_5_9718)"/>
<path d="M268.561 63.2024V65.9768C268.561 65.9768 267.281 68.7511 266.64 70.8852C266 73.2328 265.36 75.7938 261.732 75.5804C258.104 75.5804 258.317 67.2572 256.183 65.123V62.7755C256.183 62.7755 257.89 63.8425 261.945 63.6291C265.787 63.6291 268.561 63.2024 268.561 63.2024Z" fill="#001724"/>
<path d="M245.924 210.277L257.875 210.277L257.875 195.125L245.924 195.125L245.924 210.277Z" fill="url(#paint7_linear_5_9718)"/>
<path d="M265.845 210.063L277.796 210.063L277.796 187.014L265.845 187.014L265.845 210.063Z" fill="#001724"/>
<path d="M407.067 275.976C407.067 275.976 405.359 274.909 404.506 275.336C403.652 275.763 403.012 275.976 403.012 275.976H401.945C401.945 275.976 401.731 269.573 402.798 266.586C403.865 263.598 404.932 261.25 410.908 260.397C413.896 259.97 416.884 259.543 419.658 259.756C415.176 260.397 410.268 261.891 408.987 265.946C407.493 270.427 407.28 273.842 407.493 276.189L407.067 275.976Z" fill="white"/>
<path d="M419.018 304.147C419.231 299.665 423.073 293.903 424.78 291.555C426.487 289.208 426.701 286.647 426.274 283.019C426.061 282.378 426.061 281.738 425.847 281.311C425.847 281.311 428.408 285.58 426.701 292.622C425.207 299.025 418.378 313.964 432.89 319.512C430.329 319.726 427.768 319.299 425.847 318.232C419.231 314.391 418.804 308.628 419.018 304.147Z" fill="white"/>
<path d="M407.493 302.226C407.493 302.226 408.56 302.653 409.627 302.866C408.774 304.787 408.133 307.775 409.414 312.256L407.28 312.683C407.28 312.683 404.932 311.189 405.359 307.775C405.786 304.574 407.493 302.226 407.493 302.226Z" fill="white"/>
<path d="M193.866 39.3C193.439 36.3122 191.092 34.8183 188.958 33.9646C190.238 33.5378 191.732 33.3243 193.012 33.5378C196.427 33.9646 200.482 37.5926 201.336 42.2877C202.189 46.9828 196.214 53.5987 196.214 53.5987L193.653 45.9157C188.317 45.7023 183.836 49.5438 182.555 51.0377C184.049 46.3426 194.506 44.4219 193.866 39.3Z" fill="white"/>
<path d="M175.513 33.9646C182.769 32.0439 185.756 35.2451 185.756 35.2451L183.195 36.9523C183.195 36.9523 179.567 32.4707 170.604 36.5256C172.098 35.4585 173.805 34.3914 175.513 33.9646Z" fill="white"/>
<path d="M245.513 161.373C245.513 161.373 241.458 148.995 228.013 149.848C214.568 150.702 211.58 160.519 210.726 161.8C210.726 161.8 217.982 166.281 228.653 165.854C239.537 165.428 245.513 161.373 245.513 161.373Z" fill="url(#paint8_linear_5_9718)"/>
<path d="M285.847 210.458H297.798C298.225 210.031 298.225 172.684 298.225 172.684C297.798 172.257 285.634 172.257 285.634 172.257C285.207 172.684 285.207 184.635 285.207 184.635C286.274 184.635 286.274 173.111 286.274 173.111H297.158V209.391H286.274V198.507C285.207 198.507 285.207 210.031 285.207 210.031C285.42 210.245 285.634 210.458 285.847 210.458Z" fill="#001724"/>
<path d="M265.359 210.031C265.359 210.031 265.359 186.769 265.786 186.342C265.786 186.342 277.737 186.342 278.378 186.769C278.378 186.769 278.378 210.031 277.951 210.458H266C265.573 210.458 265.359 210.245 265.359 210.031ZM277.311 187.409H266.426V209.604H277.311V187.409Z" fill="#001724"/>
<path d="M245.726 210.458H257.677C258.104 210.031 258.104 200.854 258.104 200.854C257.037 200.854 257.037 209.604 257.037 209.604H246.153V195.946H253.835C253.835 194.879 245.726 194.879 245.726 194.879C245.299 195.306 245.299 210.031 245.299 210.031C245.299 210.245 245.512 210.458 245.726 210.458Z" fill="#001724"/>
<path d="M155.025 182.287H216.701C216.701 181.22 155.025 181.22 155.025 181.22C154.384 182.074 154.598 182.287 155.025 182.287Z" fill="#001724"/>
<path d="M155.025 206.403H180.421C180.421 205.336 155.025 205.336 155.025 205.336C154.384 206.19 154.598 206.403 155.025 206.403Z" fill="#001724"/>
<path d="M185.329 206.403H216.701C216.701 205.336 185.329 205.336 185.329 205.336C184.689 206.19 185.116 206.403 185.329 206.403Z" fill="#001724"/>
<path d="M155.025 215.58H175.086C175.086 214.513 155.025 214.513 155.025 214.513C154.384 215.367 154.598 215.58 155.025 215.58Z" fill="#001724"/>
<path d="M180.421 215.58H216.702C216.702 214.513 180.421 214.513 180.421 214.513C179.781 215.367 180.208 215.58 180.421 215.58Z" fill="#001724"/>
<path d="M155.025 191.464H188.531C188.531 190.397 155.025 190.397 155.025 190.397C154.384 191.251 154.598 191.464 155.025 191.464Z" fill="#001724"/>
<path d="M193.866 191.464H216.701C216.701 190.397 193.866 190.397 193.866 190.397C193.225 191.251 193.439 191.464 193.866 191.464Z" fill="#001724"/>
<path d="M241.031 254.848H302.707C302.707 253.781 241.031 253.781 241.031 253.781C240.604 254.635 240.817 254.848 241.031 254.848Z" fill="#001724"/>
<path d="M241.031 278.964H302.707C302.707 277.897 241.031 277.897 241.031 277.897C240.604 278.75 240.817 278.964 241.031 278.964Z" fill="#001724"/>
<path d="M241.031 288.354H302.707C302.707 287.287 241.031 287.287 241.031 287.287C240.604 287.927 240.817 288.354 241.031 288.354Z" fill="#001724"/>
<path d="M241.031 264.025H302.707C302.707 262.958 241.031 262.958 241.031 262.958C240.604 263.811 240.817 264.025 241.031 264.025Z" fill="#001724"/>
<path d="M180.421 254.848H216.702C216.702 253.781 180.421 253.781 180.421 253.781C179.781 254.635 180.208 254.848 180.421 254.848Z" fill="#001724"/>
<path d="M173.165 278.964H216.702C216.702 277.897 173.165 277.897 173.165 277.897C172.525 278.75 172.738 278.964 173.165 278.964Z" fill="#001724"/>
<path d="M168.683 288.354H216.488C216.488 287.287 168.683 287.287 168.683 287.287C168.257 287.927 168.47 288.354 168.683 288.354Z" fill="#001724"/>
<path d="M177.647 264.025H216.488C216.488 262.958 177.647 262.958 177.647 262.958C177.22 263.811 177.433 264.025 177.647 264.025Z" fill="#001724"/>
<path d="M37.0069 408.506C37.2203 401.25 37.2203 401.25 37.4337 391.86V390.793C36.3666 390.793 36.3666 391.86 36.3666 391.86C36.1532 401.25 36.1532 401.25 36.3666 407.226C36.58 408.293 36.7934 408.506 37.0069 408.506Z" fill="#001724"/>
<path d="M55.5738 355.793C64.3238 338.933 69.8725 312.043 69.8725 311.83C68.8055 311.83 63.4701 338.506 55.147 354.939C55.3604 355.793 55.3604 355.793 55.5738 355.793Z" fill="#001724"/>
<path d="M122.373 409.787C122.799 409.146 122.586 397.622 122.586 383.963C121.519 397.622 121.732 409.146 121.732 409.36C121.732 409.573 121.946 409.787 122.373 409.787Z" fill="#001724"/>
<path d="M120.451 320.58C120.024 311.616 117.677 303.293 115.969 298.384C116.609 303.72 118.957 311.83 119.811 320.153C120.024 320.366 120.237 320.58 120.451 320.58Z" fill="#001724"/>
<path d="M90.3604 272.348C91.4275 272.348 92.2811 272.348 93.1348 272.348C95.0555 272.348 96.336 271.921 97.6165 271.494C99.7506 270.641 100.818 268.72 101.458 266.159C102.312 262.104 101.671 258.049 101.031 254.208C100.604 251.22 98.0433 239.269 97.8299 239.055C96.9762 239.909 99.5372 251.007 99.7506 253.781C100.391 258.263 101.031 262.104 100.177 265.946C99.7506 268.293 98.6835 269.787 96.9762 270.641C95.9091 271.067 94.6287 271.494 92.9214 271.494C91.214 271.494 88.8665 271.494 87.1592 271.494C88.2262 272.135 89.2933 272.348 90.3604 272.348Z" fill="#001724"/>
<path d="M77.3423 253.781C94.6288 244.604 98.4703 238.202 98.6837 237.988C97.83 237.562 93.7752 243.964 77.1289 252.927C77.1289 253.781 77.3423 253.781 77.3423 253.781Z" fill="#001724"/>
<path d="M86.3057 250.58C86.7326 250.366 86.946 250.58 87.3728 252.074C87.7996 253.568 87.3728 253.994 86.946 253.994C86.5192 253.994 86.0923 253.567 86.0923 252.5C85.8789 251.433 85.8789 250.793 86.3057 250.58Z" fill="#001724"/>
<path d="M96.9761 248.872C97.403 248.659 97.6164 248.872 98.0432 250.366C98.47 251.86 98.0432 252.287 97.6164 252.287C97.1896 252.287 96.7627 251.86 96.5493 250.793C96.5493 249.726 96.5493 249.086 96.9761 248.872Z" fill="#001724"/>
<path d="M98.6832 245.885C98.2564 244.604 97.1893 243.964 95.0552 244.818C96.9759 245.031 97.8296 245.458 98.4698 245.885C98.6832 245.885 98.6832 245.885 98.6832 245.885Z" fill="#001724"/>
<path d="M75.6345 264.025C77.1284 264.025 77.9821 263.598 78.8357 262.958C77.5553 262.531 76.7016 262.958 75.848 262.958C74.5675 263.171 73.287 262.531 72.4333 261.891C71.5797 261.037 70.9395 259.97 70.726 258.69C70.726 257.409 71.1529 256.129 71.7931 255.275C72.6468 254.208 73.7138 253.781 74.9943 253.568C75.848 253.568 76.915 253.781 77.7687 254.208C77.3418 252.714 76.2748 252.5 74.9943 252.5C71.7931 252.714 69.4456 255.488 69.659 258.69C69.659 260.183 70.5126 261.677 71.5797 262.744C72.8602 263.598 74.1406 264.025 75.6345 264.025Z" fill="#001724"/>
<path d="M74.7816 261.677C75.2084 261.464 78.4097 258.263 78.4097 258.263C78.1962 257.409 73.928 255.062 73.928 255.062C73.5011 255.915 77.1292 258.049 77.1292 258.049L74.3548 260.824C74.5682 261.464 74.7816 261.677 74.7816 261.677Z" fill="#001724"/>
<path d="M91.8541 292.409C92.2809 292.409 92.9212 292.409 93.5614 292.195C94.4151 291.982 95.0553 291.555 95.4821 290.702C97.4029 287.287 94.6285 279.177 94.2017 278.11L93.7748 271.494C92.7077 271.494 93.348 278.323 93.348 278.323C93.348 278.537 96.3358 287.074 94.6285 290.275C94.4151 290.702 93.9882 291.128 93.348 291.128C84.598 292.836 78.409 278.11 78.409 278.11C77.7688 279.177 83.3175 292.409 91.8541 292.409Z" fill="#001724"/>
<path d="M91.6407 264.025C92.281 264.025 92.9212 263.812 93.5615 263.598C92.0676 263.171 91.2139 263.171 90.3602 262.744C89.0798 262.104 88.6529 260.397 88.6529 260.397C87.5859 260.61 88.2261 262.744 89.72 263.598C90.5737 264.025 91.2139 264.025 91.6407 264.025Z" fill="#001724"/>
<path d="M43.6228 299.025C40.2082 295.61 40.2082 288.781 41.9155 284.939C43.196 281.952 45.5435 278.964 48.7447 276.616C51.0923 274.909 53.6532 273.628 56.4276 272.135L57.2813 271.708C59.4154 270.641 62.1898 268.933 63.2569 266.372C64.7508 262.744 63.6837 259.33 62.6167 256.555C62.4032 256.128 62.1898 255.488 61.9764 255.061C60.6959 251.86 59.202 248.445 59.4154 245.244C59.6289 242.47 60.9093 238.629 63.4703 237.135C66.6715 235.001 69.8727 233.507 72.2203 232.653C74.3544 231.799 93.1348 225.397 99.9641 233.72C102.312 236.494 103.592 240.122 103.806 245.244C104.019 247.165 103.592 248.872 103.379 250.793C103.165 252.501 102.738 254.421 102.738 256.342C102.952 259.757 104.232 262.958 106.58 265.519C107.434 266.372 108.287 267.012 109.141 267.653C109.995 268.293 110.635 268.72 111.275 269.36C112.556 270.641 113.623 272.348 114.263 274.055C115.33 277.043 115.33 281.098 112.769 283.872C116.61 281.738 116.397 277.043 115.33 273.842C114.69 271.921 113.623 270.214 112.129 268.72C111.488 268.08 110.635 267.439 109.781 266.799C108.927 266.159 108.074 265.519 107.22 264.665C105.086 262.318 103.806 259.33 103.806 256.129C103.806 254.421 104.019 252.714 104.232 251.007C104.659 249.086 104.873 247.165 104.659 245.244C104.232 239.909 102.952 235.854 100.604 233.08C93.1349 224.33 73.9276 230.946 71.7935 231.799C69.2325 232.653 66.2447 234.36 62.8301 236.494C59.8423 238.415 58.5618 242.47 58.3484 245.458C58.135 248.872 59.6289 252.5 60.9093 255.915C61.1228 256.555 61.3362 256.982 61.5496 257.409C62.6167 259.97 63.4703 263.171 62.1898 266.372C61.1228 268.72 58.5618 270.214 56.6411 271.281L55.7874 271.708C53.2264 272.988 50.452 274.482 47.8911 276.189C44.4764 278.75 42.1289 281.738 40.635 284.939C38.9277 288.994 38.9277 296.464 42.9826 299.238C43.4094 299.025 43.4094 299.025 43.6228 299.025Z" fill="#001724"/>
<path d="M77.9818 278.964C78.4087 278.537 78.1953 263.812 78.1953 263.812C77.1282 263.812 77.555 278.537 77.555 278.537C77.3416 278.751 77.7684 278.964 77.9818 278.964Z" fill="#001724"/>
<path d="M44.2629 392.714C61.9763 392.714 85.4518 374.787 98.2566 360.915C98.2566 360.275 95.4823 353.018 90.7872 346.616C85.6652 340 82.0372 336.372 82.0372 336.372C81.1835 336.372 60.0556 349.817 48.7446 361.128C60.0556 351.525 78.836 339.147 81.6104 337.439C82.464 338.506 85.8786 341.921 90.1469 347.47C94.2018 353.019 96.9762 359.208 97.403 360.702C78.1957 381.616 49.5983 398.689 34.4459 389.299C9.68987 374.36 29.3239 331.89 39.9946 309.269L40.6349 307.775C41.0617 306.921 41.4885 305.854 41.9154 304.574C44.2629 298.598 47.8909 289.421 56.0007 284.513C61.336 281.311 66.6714 279.177 77.5555 279.177C66.6714 278.11 60.9092 280.244 55.5739 283.446C47.2507 288.568 43.4093 298.171 41.0617 303.933C40.6349 305.214 40.2081 306.281 39.7812 307.134L39.141 308.629C28.4703 331.677 8.40936 374.573 34.019 389.939C36.7934 391.86 40.4215 392.714 44.2629 392.714Z" fill="#001724"/>
<path d="M120.878 285.153C126.854 285.153 132.83 283.446 137.525 278.537C140.726 275.336 143.5 271.068 145.848 265.732C149.049 258.263 150.97 249.086 151.183 240.336C149.903 249.086 148.195 258.049 144.994 265.305C142.86 270.427 140.086 274.696 136.885 277.683C128.135 286.433 115.116 284.726 105.513 280.244C102.098 278.537 98.0432 277.683 93.7749 277.683C97.8298 278.75 101.671 279.604 105.086 281.098C109.781 283.659 115.33 285.153 120.878 285.153Z" fill="#001724"/>
<path d="M124.933 321.86C135.391 321.006 142.433 315.671 150.116 310.122C167.616 297.104 179.354 271.494 181.915 241.19C178.5 271.068 166.763 296.464 149.689 309.269C142.22 314.817 134.964 320.153 124.933 320.793C124.507 321.86 124.72 321.86 124.933 321.86Z" fill="#001724"/>
<path d="M96.976 259.543C97.8297 258.049 98.2565 255.062 97.1894 254.421C96.5492 253.994 95.2687 254.421 94.2016 254.848L93.1346 248.446C92.0675 248.659 93.348 255.488 93.348 255.488C95.0553 255.275 96.1224 254.848 96.5492 255.062C96.7626 255.275 96.7626 257.196 96.3358 258.903C96.7626 259.543 96.976 259.543 96.976 259.543Z" fill="#001724"/>
<path d="M156.305 243.11C156.519 237.775 156.519 224.543 159.506 222.196C163.134 219.208 164.842 218.568 169.537 222.196C169.75 222.409 170.177 222.623 170.604 222.836C172.098 223.903 173.805 225.183 173.805 226.677C173.805 227.744 173.165 228.812 171.671 229.879C169.537 231.799 166.336 230.519 161.641 225.824C164.202 229.665 168.897 233.507 172.311 230.519C174.019 229.025 174.872 227.745 174.659 226.464C174.659 224.543 172.525 223.049 171.031 221.982C170.604 221.769 170.391 221.555 169.964 221.342C165.055 217.501 162.708 217.927 158.653 221.342C154.598 224.543 155.665 241.83 155.665 242.683C155.878 243.11 156.092 243.11 156.305 243.11Z" fill="#001724"/>
<path d="M118.744 384.817C125.574 384.817 131.336 379.268 131.336 372.226L131.763 332.104C131.763 328.689 130.482 325.488 128.135 323.14C125.787 320.793 122.586 319.299 119.171 319.299L67.3115 318.872C67.3115 319.939 119.171 320.153 119.171 320.153C122.372 320.153 125.147 321.433 127.281 323.567C129.415 325.702 130.695 328.689 130.695 331.891L130.269 372.012C130.269 378.415 124.933 383.537 118.531 383.537C118.317 383.537 68.8054 382.896 68.8054 382.896C69.0188 384.39 118.744 384.817 118.744 384.817Z" fill="#001724"/>
<path d="M95.9092 356.647C95.9092 356.647 112.982 329.756 112.982 329.543C114.049 328.903 114.903 328.903 115.757 329.116C116.184 329.329 116.61 329.543 117.037 329.97C118.104 331.037 118.318 332.531 117.464 333.598C118.531 334.238 119.598 335.732 118.958 337.866C117.891 341.707 103.592 356.006 96.1226 357.073C96.1226 357.287 95.9092 357.287 95.9092 356.647ZM113.623 330.396L97.4031 356.22C104.446 354.085 117.037 341.494 118.104 338.079C118.744 335.732 116.61 334.665 116.397 333.811C117.251 332.957 117.037 331.89 116.184 331.037C115.97 330.61 115.543 330.397 114.69 330.183C114.476 329.97 114.049 330.183 113.623 330.396Z" fill="#001724"/>
<path d="M102.311 339.787C103.805 338.933 106.366 336.799 107.22 335.945C106.579 335.092 101.884 338.72 101.884 338.72C102.098 339.787 102.311 339.787 102.311 339.787Z" fill="#001724"/>
<path d="M106.793 336.159C106.793 336.159 100.604 334.025 100.39 333.171C101.884 332.104 104.232 329.543 105.939 328.049C106.366 327.622 106.793 327.195 107.219 326.769C108.713 325.275 111.061 322.927 113.622 325.488C114.475 326.128 114.689 326.982 114.689 327.836C114.689 329.543 113.195 330.823 111.274 332.531C110.847 333.171 109.14 334.665 106.793 336.159C107.006 336.159 107.006 336.159 106.793 336.159ZM107.86 327.409C107.646 327.622 107.219 328.049 106.579 328.689C105.085 330.183 103.165 332.104 101.671 333.384L106.793 335.092C108.5 333.811 109.994 332.317 111.274 331.037C112.341 330.183 113.622 328.903 113.622 327.622C113.622 326.982 113.408 326.555 112.768 326.128C112.128 325.701 111.701 325.274 111.061 325.274C110.421 325.274 109.354 326.128 107.86 327.409Z" fill="#001724"/>
<path d="M82.8906 337.866C84.1711 336.159 85.2382 333.171 86.0918 330.823C86.5187 329.756 86.9455 328.689 87.1589 328.049C87.3723 327.622 87.3723 327.195 87.5857 326.769C88.226 324.848 89.0796 322.5 92.0674 322.927C92.7077 322.927 93.3479 323.354 93.5613 323.994C94.415 325.488 94.415 328.049 93.3479 330.823C92.4942 332.958 92.2808 334.238 92.4943 335.092C92.4943 335.092 100.604 332.957 101.031 333.811C96.9759 337.012 94.6284 337.866 93.1345 337.226C92.7077 337.012 92.2808 336.586 92.0674 336.372C92.0674 336.372 83.5309 338.72 83.3174 338.72C83.3174 338.72 83.104 338.506 82.8906 337.866ZM92.4943 330.61C93.3479 328.049 93.5613 325.701 92.9211 324.634C92.7077 324.208 92.4943 323.994 92.0674 323.994C89.9333 323.567 89.5065 324.848 88.6528 326.982C88.4394 327.409 88.4394 327.835 88.226 328.262C88.0126 328.903 87.5857 329.97 87.1589 331.037C86.5187 333.171 85.665 335.519 84.5979 337.226L91.6406 335.305C91.4272 334.238 91.854 332.531 92.4943 330.61ZM93.5613 336.372C94.415 336.799 95.9089 336.159 98.2564 334.665C98.2564 334.665 93.1345 336.159 93.5613 336.372Z" fill="#001724"/>
<path d="M105.94 344.695C106.153 344.482 108.928 342.561 111.916 340C114.05 338.293 116.397 335.305 117.251 334.451C116.611 333.598 113.623 337.226 111.275 339.146C108.288 341.494 105.727 343.628 105.727 343.628C105.513 344.482 105.727 344.695 105.94 344.695Z" fill="#001724"/>
<path d="M179.567 242.897C181.275 242.683 181.915 242.043 181.915 241.19C181.915 240.763 181.488 240.123 181.061 239.909C180.848 241.616 179.781 241.83 179.354 242.043C179.141 242.683 179.354 242.897 179.567 242.897Z" fill="#001724"/>
<path d="M159.934 243.751C159.934 242.683 157.373 242.47 157.373 242.47C152.251 241.616 151.184 240.549 151.184 240.336C151.184 239.909 151.611 239.696 152.678 239.269C153.745 239.055 155.665 238.629 156.092 238.629C155.239 237.561 152.678 238.202 152.464 238.202C151.824 238.415 150.33 238.842 150.33 240.122C150.33 241.616 152.678 242.683 157.373 243.324L159.934 243.751Z" fill="#001724"/>
<path d="M188.317 339.787H212.647C212.647 338.72 188.744 338.72 188.744 338.72V314.817C187.677 314.817 187.677 339.146 187.677 339.146C187.677 339.573 187.891 339.787 188.317 339.787Z" fill="#001724"/>
<path d="M451.884 320.579C454.018 319.512 454.658 316.951 454.445 313.75C454.018 310.336 452.737 307.988 450.603 306.708C450.176 306.494 449.536 306.067 448.896 305.854C448.042 305.427 446.975 305.214 445.908 305C443.987 304.573 442.067 303.933 440.786 302.653C439.719 301.586 439.079 299.878 439.292 297.744C441.426 282.378 443.347 274.055 443.56 274.055C443.347 269.787 441.426 266.372 437.798 264.025C433.957 261.464 429.262 261.677 428.195 261.677C427.341 261.037 426.487 260.61 425.207 259.97C419.658 257.622 412.829 259.116 409.201 259.97C407.707 260.397 405.573 261.037 404.079 262.744C402.158 264.665 401.731 267.653 401.518 270.427C401.091 275.549 401.304 275.762 401.518 275.976C401.945 276.189 403.225 276.189 403.225 276.189V275.122C402.372 274.695 402.372 273.628 402.585 270.64C402.798 267.866 403.439 265.305 404.933 263.384C406.213 261.89 408.134 261.25 409.628 260.824C413.042 259.756 419.872 258.476 424.993 260.61C426.274 261.037 427.128 261.677 427.768 262.104C428.195 262.104 433.103 261.677 437.158 264.238C440.359 266.372 442.28 269.574 442.493 273.415C442.28 274.269 440.359 282.592 438.225 297.104C438.012 299.451 438.439 301.585 439.932 302.866C441.426 304.36 443.56 304.787 445.481 305.427C446.548 305.64 447.402 305.854 448.256 306.281C448.896 306.494 449.323 306.707 449.749 306.921C451.67 308.201 452.951 310.335 453.164 313.323C453.377 315.031 453.377 318.019 451.457 319.086C451.457 320.58 451.67 320.579 451.884 320.579Z" fill="#001724"/>
<path d="M407.067 276.403C410.481 276.403 415.817 276.403 415.817 276.403V275.336C415.817 275.336 410.481 275.336 407.067 275.336C406.64 276.19 406.853 276.403 407.067 276.403Z" fill="#001724"/>
<path d="M431.609 320.153C438.225 320.153 445.054 316.951 445.481 316.738C444.841 315.884 432.249 321.86 424.993 317.592C421.792 315.671 420.085 312.043 419.658 306.921C419.231 300.945 422.646 296.25 424.566 293.689C424.78 293.263 424.993 293.049 425.207 292.836C429.048 287.287 426.487 281.738 424.78 277.683C424.566 277.043 424.353 276.403 424.14 275.976C422.646 272.134 425.633 267.653 425.847 267.653C421.152 269.787 421.365 274.055 421.792 275.763H419.444C419.444 276.83 422.219 276.83 422.219 276.83C422.646 275.976 421.792 273.415 423.072 270.854C422.646 272.561 422.219 274.482 423.072 276.616C423.286 277.256 423.499 277.683 423.713 278.323C425.42 282.378 427.554 287.5 424.14 292.622C423.926 292.836 423.713 293.263 423.499 293.476C421.365 296.25 418.164 301.159 418.377 307.348C418.804 312.897 420.725 316.738 424.14 318.872C426.701 319.726 429.048 320.153 431.609 320.153Z" fill="#001724"/>
<path d="M469.383 399.543C453.377 384.39 416.67 382.043 416.243 381.829C416.456 382.896 452.95 385.244 468.956 399.329C468.956 399.543 469.169 399.543 469.383 399.543Z" fill="#001724"/>
<path d="M481.121 409.36C492.219 388.445 476.853 353.659 466.182 336.372C463.621 332.317 460.847 327.836 457.432 323.994C454.444 320.366 450.176 318.018 445.694 315.671C449.536 318.872 453.804 321.22 456.578 324.634C459.78 328.476 462.767 332.744 465.328 336.799C475.359 352.592 491.365 388.232 480.694 408.506C480.908 409.36 480.908 409.36 481.121 409.36Z" fill="#001724"/>
<path d="M376.335 344.695C376.975 344.055 377.188 343.415 377.402 342.988C385.084 325.061 394.902 315.671 408.347 312.897C409.414 312.683 412.615 312.043 412.615 312.043L412.402 310.976C412.402 310.976 409.2 311.616 408.133 311.83C394.688 314.604 384.231 324.634 376.548 342.561C376.335 342.988 376.121 343.415 375.908 343.842C376.335 344.695 376.335 344.695 376.335 344.695Z" fill="#001724"/>
<path d="M411.762 303.72C412.402 303.72 412.829 303.72 413.256 303.72C414.963 303.506 417.524 303.293 419.231 302.866C417.311 302.226 414.963 302.439 413.256 302.653C411.548 302.866 410.268 302.653 409.201 302.439C407.494 301.799 406.213 300.519 405.359 298.384C404.506 295.823 404.292 293.476 404.292 290.915C403.225 293.689 403.439 296.037 404.506 298.811C405.359 301.372 406.853 302.866 408.987 303.72C409.841 303.506 410.908 303.72 411.762 303.72Z" fill="#001724"/>
<path d="M414.963 323.781C417.737 323.781 422.432 318.232 423.286 316.952C420.085 319.299 416.03 323.354 414.75 322.714C413.042 322.073 412.829 315.671 413.042 311.83L412.615 303.293C411.548 303.293 411.975 311.83 411.975 311.83C411.762 313.537 411.335 322.5 414.323 323.567C414.536 323.781 414.75 323.781 414.963 323.781Z" fill="#001724"/>
<path d="M406.64 312.897C403.652 307.348 408.134 302.653 408.134 302.653C407.28 302.012 402.372 307.348 406.213 312.683C406.426 312.897 406.426 312.897 406.64 312.897Z" fill="#001724"/>
<path d="M448.683 388.872C451.03 370.732 441 341.281 441 341.067C440.146 341.707 449.963 370.732 448.256 388.445C448.683 388.872 448.683 388.872 448.683 388.872Z" fill="#001724"/>
<path d="M412.188 295.61C413.042 295.61 413.682 295.397 414.322 294.97C415.816 293.903 416.03 291.769 416.03 291.769C414.963 291.769 414.749 293.262 413.682 294.116C413.042 294.543 411.975 294.756 410.908 294.329C411.121 295.397 411.761 295.61 412.188 295.61Z" fill="#001724"/>
<path d="M316.793 375C314.872 373.933 313.165 372.226 311.884 370.092C309.11 365.396 309.537 360.274 312.738 358.354C314.232 357.5 316.152 357.5 318.287 358.567C320.207 359.634 321.915 361.342 323.195 363.476C325.969 368.171 325.543 373.293 322.341 375.214C321.701 375.64 320.847 375.854 319.994 375.854C318.927 375.854 317.86 375.64 316.793 375ZM313.165 359.421C310.604 360.915 310.39 365.61 312.738 369.665C314.018 371.799 315.512 373.293 317.219 374.146C318.927 375 320.634 375 321.701 374.36C324.262 372.866 324.476 368.171 322.128 364.116C320.847 361.982 319.354 360.488 317.646 359.634C316.793 359.208 315.726 358.994 315.085 358.994C314.232 358.781 313.591 358.994 313.165 359.421Z" fill="#001724"/>
<path d="M379.963 409.787C384.231 409.787 388.073 407.866 390.634 404.238C393.195 400.823 393.835 396.341 392.555 392.287L372.921 332.744C371.213 327.409 366.091 323.781 360.329 323.781H277.098C276.031 323.781 275.177 323.994 274.11 324.207C275.177 325.061 276.031 324.848 277.098 324.848H360.329C365.664 324.848 370.36 328.262 371.853 333.171L391.488 392.714C392.768 396.555 392.128 400.396 389.78 403.598C387.433 406.799 383.805 408.72 379.963 408.72C379.536 409.573 379.75 409.787 379.963 409.787Z" fill="#001724"/>
<path d="M278.592 401.25L258.957 344.268C257.677 340.427 258.317 336.372 260.665 333.171C263.226 329.756 267.281 327.622 271.549 327.622H354.78C360.543 327.622 365.451 331.037 367.372 336.372L387.006 393.354C388.286 397.195 387.646 401.25 385.298 404.451C382.738 407.866 378.683 410 374.414 410H291.183C285.421 409.787 280.299 406.372 278.592 401.25ZM271.335 328.476C267.281 328.476 263.439 330.397 261.305 333.598C259.171 336.586 258.531 340.427 259.811 343.842L279.445 400.823C281.152 405.518 285.848 408.933 290.97 408.933H374.201C378.256 408.933 382.097 407.012 384.231 403.811C386.366 400.823 387.006 396.982 385.725 393.567L366.091 336.586C364.384 331.89 359.689 328.689 354.567 328.689H271.335V328.476Z" fill="#001724"/>
<path d="M404.292 409.787C411.335 409.787 413.256 401.464 413.256 400.183C412.189 400.183 411.122 408.72 404.292 408.72C402.799 408.72 401.731 408.293 401.305 407.653C400.451 406.159 401.945 403.171 403.225 400.823C403.439 400.183 403.866 399.756 404.079 399.329C404.292 398.903 404.506 398.262 404.719 397.622C406 394.207 407.921 389.299 414.536 390.579C414.536 390.579 422.859 392.927 427.768 396.342C423.286 392.073 415.177 389.726 414.75 389.512C407.28 388.232 405.146 393.567 403.866 397.195C403.652 397.836 403.439 398.262 403.225 398.902C403.012 399.329 402.799 399.756 402.585 400.396C401.305 402.957 399.597 406.159 400.878 408.079C401.091 409.36 402.372 409.787 404.292 409.787Z" fill="#001724"/>
<path d="M398.317 409.787C395.542 408.506 393.835 407.866 393.408 406.585C392.981 405.518 393.622 404.024 394.262 403.384C395.116 402.317 395.969 400.396 396.823 398.049C397.89 395.061 399.17 391.86 400.878 389.939C403.652 386.951 410.055 390.579 410.055 390.579C410.268 389.512 403.439 385.671 400.024 389.299C398.103 391.219 396.823 394.634 395.756 397.622C394.902 399.756 394.049 401.89 393.408 402.531C392.555 403.598 391.701 405.305 392.341 406.799C392.981 408.079 394.262 409.573 398.317 409.787Z" fill="#001724"/>
<path d="M422.219 409.787C422.646 409.787 422.859 409.787 423.286 409.787C422.646 408.933 422.219 408.933 421.792 408.933C413.682 408.506 413.042 402.317 413.042 401.89C411.975 402.104 412.615 409.36 421.792 409.787C421.792 409.787 422.005 409.787 422.219 409.787Z" fill="#001724"/>
<path d="M422.006 409.787C427.128 406.585 429.689 400.61 428.622 394.634C427.341 386.311 419.872 380.762 411.975 381.829C409.414 382.256 405.573 383.323 401.091 388.018C406 384.177 409.628 383.11 412.189 382.896C419.445 381.616 426.274 387.165 427.555 394.848C428.408 400.396 426.061 405.945 421.579 408.933C421.579 409.786 421.792 409.787 422.006 409.787Z" fill="#001724"/>
<path d="M391.701 392.073C392.128 391.646 392.982 388.872 394.902 388.018C397.463 386.951 400.665 389.512 400.665 389.512C401.091 388.659 397.677 385.671 394.476 386.951C391.915 388.018 391.061 391.219 391.061 391.219C391.701 392.073 391.701 392.073 391.701 392.073Z" fill="#001724"/>
<path d="M389.14 409.36C391.701 409.36 393.408 407.439 393.408 407.439C392.555 407.012 390.207 409.787 386.579 407.653C387.219 409.147 388.286 409.36 389.14 409.36Z" fill="#001724"/>
<path d="M393.835 388.659C385.938 357.287 392.554 338.293 392.554 338.293C391.487 338.08 384.658 357.5 393.194 388.445C393.408 388.445 393.621 388.659 393.835 388.659Z" fill="#001724"/>
<path d="M267.067 329.329C267.28 329.329 274.536 325.061 274.536 325.061C274.11 324.208 266.64 328.262 266.64 328.262C266.64 329.116 266.854 329.329 267.067 329.329Z" fill="#001724"/>
<path d="M316.792 312.256H361.182C361.609 311.616 353.926 289.635 353.926 289.635C353.073 290.061 360.542 311.189 360.542 311.189H316.792C316.365 312.043 316.579 312.256 316.792 312.256Z" fill="#001724"/>
<path d="M305.695 280.885H341.335C341.335 279.818 305.695 279.818 305.695 279.818C305.054 280.671 305.268 280.885 305.695 280.885Z" fill="#001724"/>
<path d="M316.792 312.256C317.219 312.043 317.433 311.83 317.219 311.616L306.122 280.244C305.268 280.671 316.365 312.043 316.365 312.043C316.579 312.043 316.579 312.256 316.792 312.256Z" fill="#001724"/>
<path d="M417.311 291.342C414.536 291.342 412.616 287.5 412.829 282.805C413.043 278.11 415.177 274.695 417.951 274.695C420.725 274.695 422.646 278.537 422.433 283.232C422.219 287.714 419.872 291.342 417.311 291.342ZM413.683 282.805C413.469 286.86 415.177 290.061 417.311 290.275C419.445 290.275 421.152 287.074 421.366 283.019C421.579 278.964 419.872 275.763 417.738 275.549C415.604 275.763 413.896 278.964 413.683 282.805Z" fill="#001724"/>
<path d="M404.719 291.342C405.573 291.342 406.213 291.128 406.853 290.488C405.573 290.275 405.146 290.488 404.506 290.488C402.372 290.488 400.878 287.074 400.878 283.019C401.091 279.177 402.798 275.763 404.933 275.763C407.067 275.763 408.774 279.177 408.561 283.232C408.561 284.726 408.347 285.793 407.92 287.074C409.414 286.22 409.628 284.939 409.628 283.232C409.841 278.537 407.707 274.909 405.146 274.695C402.372 274.695 400.237 278.324 400.024 282.805C399.811 287.5 401.945 291.128 404.719 291.342Z" fill="#001724"/>
<path d="M409.414 284.086C409.841 283.659 411.121 282.592 412.829 283.872C411.335 281.525 409.628 282.592 408.987 283.232C409.201 284.086 409.414 284.086 409.414 284.086Z" fill="#001724"/>
<path d="M268.561 67.0438C268.988 66.6169 268.988 63.2023 268.988 63.2023C264.506 63.6292 260.238 63.6291 256.183 62.3486C255.543 63.2023 255.543 64.9096 255.543 64.9096C256.61 64.9096 256.61 63.4157 256.61 63.4157C260.238 64.4828 264.293 64.4828 267.921 63.4157V66.4036C268.134 66.8304 268.348 67.0438 268.561 67.0438Z" fill="#001724"/>
<path d="M256.183 63.2024C247.646 60.428 241.884 52.5316 241.884 43.5682C241.884 32.0439 251.274 22.8671 262.585 22.8671C274.11 22.8671 283.287 32.2573 283.287 43.5682C283.287 52.5316 277.524 60.428 268.988 63.2024C266.854 63.8426 264.72 64.2694 262.585 64.2694C260.238 64.2694 258.104 63.8426 256.183 63.2024ZM242.738 43.5682C242.738 52.1048 248.287 59.7877 256.396 62.3486C260.238 63.6291 264.506 63.6291 268.348 62.3486C276.457 59.7877 282.006 52.1048 282.006 43.5682C282.006 32.6841 273.256 23.9341 262.372 23.9341C251.488 23.7207 242.738 32.6841 242.738 43.5682Z" fill="#001724"/>
<path d="M270.482 51.2511C270.269 51.0377 269.842 50.6109 269.629 50.3975C267.921 51.2512 265.574 51.678 262.586 51.678C260.879 51.678 259.385 51.4645 258.104 50.8243C256.397 50.184 255.117 49.117 254.263 47.8365C252.129 48.6902 249.568 48.6902 247.22 47.8365C248.928 47.8365 251.488 47.8365 253.623 46.9828C253.196 46.1292 252.982 45.2755 252.982 44.2085C252.982 43.7816 252.982 41.6475 254.049 41.0073C254.263 40.7938 254.903 40.5805 255.543 40.7939C256.184 41.0073 256.61 41.434 257.037 42.2877C257.464 42.9279 257.464 43.7816 257.464 44.4218C257.251 45.4889 256.397 46.7694 255.117 47.4097C255.757 48.4768 257.037 49.3304 258.318 49.7572C259.385 50.184 260.879 50.3975 262.373 50.3975C265.147 50.3975 267.281 50.1841 268.775 49.3305C268.135 47.8366 267.921 46.1291 267.921 45.4889C267.921 44.6352 268.135 43.7816 268.348 42.7145C268.562 42.0743 268.775 41.0072 269.629 40.5804C270.056 40.367 270.482 40.367 270.909 40.5804C271.976 41.2207 272.616 43.3549 272.616 43.9951C272.83 45.7024 272.403 47.1963 271.336 48.4768C270.909 48.9036 270.482 49.3305 270.696 50.3975C271.763 51.2512 273.47 51.4645 274.11 52.3182C273.257 52.3182 271.763 52.1048 270.482 51.2511ZM270.482 41.4341C270.055 41.6475 269.842 42.5012 269.629 43.1414C269.415 43.9951 269.415 44.6352 269.415 45.4889C269.415 46.7694 269.629 47.8365 270.055 48.9036C270.482 48.6902 270.696 48.2634 271.123 47.8365C271.976 46.7695 272.403 45.489 272.19 43.9951C271.976 43.3549 271.549 41.8609 270.482 41.4341ZM255.117 41.861C254.69 42.2878 254.476 43.3548 254.476 44.2085C254.476 45.0621 254.69 45.9157 255.117 46.556C256.184 45.9157 256.61 45.2755 256.824 44.4218C256.824 43.995 256.824 43.3549 256.61 42.928C256.397 42.7146 256.184 42.0744 255.543 41.861C255.117 41.861 255.117 41.861 255.117 41.861Z" fill="#001724"/>
<path d="M284.994 32.4707C285.207 32.4707 307.616 15.6109 307.616 15.6109C306.975 14.7573 284.567 31.617 284.567 31.617C284.78 32.4706 284.78 32.4707 284.994 32.4707Z" fill="#001724"/>
<path d="M304.628 68.1109C304.841 67.2572 283.713 53.3853 283.713 53.3853C283.073 54.2389 304.415 67.8974 304.415 67.8974C304.415 68.1108 304.415 68.1109 304.628 68.1109Z" fill="#001724"/>
<path d="M262.372 18.172C262.798 17.7451 262.799 0.671997 262.799 0.671997C261.731 0.671997 261.731 17.7451 261.731 17.7451C261.945 17.9585 262.158 18.172 262.372 18.172Z" fill="#001724"/>
<path d="M241.885 32.4708C242.098 31.6171 230.574 25.2146 230.574 25.2146C230.147 26.0683 241.671 32.2574 241.671 32.2574C241.671 32.4708 241.671 32.4708 241.885 32.4708Z" fill="#001724"/>
<path d="M220.543 78.995C220.97 78.7816 243.592 58.7206 243.592 58.7206C242.952 57.867 220.116 78.1414 220.116 78.1414C220.33 78.995 220.33 78.995 220.543 78.995Z" fill="#001724"/>
<path d="M189.171 54.239C190.878 51.678 193.226 52.3183 193.226 52.5317C192.372 51.2512 190.025 51.2512 188.744 53.5988C188.958 54.239 188.958 54.239 189.171 54.239Z" fill="#001724"/>
<path d="M192.372 56.1596C192.799 56.1596 193.012 56.1597 193.226 57.6536C193.439 59.3609 193.012 59.5743 192.585 59.5743C192.158 59.5743 191.945 59.1475 191.945 57.8671C191.732 56.8 191.945 56.1596 192.372 56.1596Z" fill="#001724"/>
<path d="M191.305 86.678C191.732 86.2511 191.732 81.9828 191.732 81.9828C190.665 81.9828 190.878 86.0376 190.878 86.0376C190.878 86.4644 191.092 86.678 191.305 86.678Z" fill="#001724"/>
<path d="M144.78 144.726C145.207 130.214 145.848 118.05 145.848 118.05C146.061 114.208 147.982 109.3 150.116 104.818C151.823 101.19 153.744 98.4156 156.091 96.4949C159.079 93.9339 162.067 92.44 165.268 92.2266C172.524 91.373 187.677 91.3729 187.677 91.3729C190.878 91.5863 193.652 92.0132 196.64 93.2937C201.122 95.2144 204.963 99.0559 207.951 104.818C210.085 108.873 212.006 113.355 213.713 117.623C214.353 118.903 214.78 120.397 215.42 121.678C216.488 124.452 217.768 127.226 220.116 129.147C222.677 131.281 226.091 131.495 228.652 130.001C231.427 128.507 232.28 125.733 233.134 122.958L236.762 111.647C237.829 108.019 239.109 104.391 240.176 100.763C241.244 97.1351 242.524 93.2937 243.591 89.6656C241.457 92.8668 240.39 96.7083 239.109 100.336C238.042 103.964 236.762 107.592 235.695 111.221L232.067 122.531C231.213 125.092 230.359 127.653 228.012 128.934C225.664 130.214 222.677 130.001 220.542 128.08C218.408 126.373 217.128 123.598 216.061 121.037C215.42 119.757 214.994 118.263 214.353 116.983C212.646 112.714 210.725 108.233 208.591 103.964C205.39 97.9888 201.335 93.934 196.853 92.0133C193.652 90.5194 190.878 90.3059 187.463 90.0925C187.25 90.0925 172.311 90.0925 164.841 90.9462C161.213 91.373 158.226 92.8668 155.024 95.6412C152.677 97.7753 150.543 100.55 148.835 104.391C146.701 109.086 144.567 113.781 144.354 118.05C144.354 118.263 143.713 130.428 143.713 144.3C144.14 144.513 144.354 144.726 144.78 144.726Z" fill="#001724"/>
<path d="M228.226 166.068C237.189 166.068 245.939 163.293 252.982 156.251C261.091 147.928 265.146 136.617 267.921 126.586C270.695 116.556 272.189 107.379 273.896 97.7753L274.537 94.3607C273.469 94.1473 273.043 97.5619 273.043 97.5619C271.335 107.166 269.841 116.342 267.067 126.373C264.293 136.19 260.451 147.501 252.341 155.611C239.963 168.202 221.183 166.922 207.951 160.306L206.457 159.665C187.037 147.928 181.701 121.891 181.701 121.678C180.848 122.105 186.183 148.568 206.031 160.732L207.525 161.373C213.5 164.147 220.97 166.068 228.226 166.068Z" fill="#001724"/>
<path d="M129.201 144.94C134.323 129.147 144.353 110.367 154.81 97.9888C143.713 109.94 133.469 128.72 128.774 144.3C129.201 144.94 129.201 144.94 129.201 144.94Z" fill="#001724"/>
<path d="M191.731 82.1962C198.774 82.1962 200.695 78.5682 201.122 76.6475C201.762 74.2999 200.481 68.5377 200.055 67.0438C200.908 66.617 203.042 65.1231 203.896 63.4158C204.323 62.3487 204.109 61.0682 203.256 60.4279C201.975 59.3608 198.561 57.4402 197.707 56.8C197.494 55.3061 195.786 47.8365 194.933 46.3427C194.719 48.05 196.213 54.8792 196.64 57.2267C196.853 57.6535 201.122 60.0011 202.402 61.2816C202.829 61.7085 203.042 62.5622 202.829 63.2024C201.975 64.9097 199.201 66.617 198.987 66.617C198.774 67.2572 200.481 74.2999 199.841 76.6475C199.201 78.995 196.64 82.8364 185.969 80.7022C188.103 81.9827 190.024 82.1962 191.731 82.1962Z" fill="#001724"/>
<path d="M175.512 69.8182C177.433 69.8182 179.354 68.9645 180.634 67.2572C178.286 68.7511 175.512 69.3913 173.165 68.3242C171.884 67.684 170.817 66.6169 170.177 65.123C169.75 63.6291 169.75 62.1352 170.39 60.8547C171.671 58.0804 175.085 56.7999 177.86 58.0804C178.713 58.5072 179.567 59.1475 179.994 60.0012C180.207 58.5073 179.14 57.6535 178.286 57.2267C174.872 55.7328 171.03 57.2267 169.537 60.4279C168.896 62.1352 168.683 63.8426 169.323 65.5499C169.963 67.2572 171.244 68.5377 172.738 69.1779C173.591 69.6048 174.445 69.8182 175.512 69.8182Z" fill="#001724"/>
<path d="M174.446 67.2571C174.872 67.0437 178.714 63.6291 178.714 63.6291C178.714 62.7754 173.379 59.5743 173.379 59.5743C172.952 60.4279 177.647 63.2023 177.647 63.2023L174.232 66.1901C174.019 67.2571 174.232 67.2571 174.446 67.2571Z" fill="#001724"/>
<path d="M265.787 96.4948C267.068 96.4948 268.135 96.4949 269.202 96.2815C272.617 95.8546 274.324 95.2143 274.537 93.9338C274.751 92.2265 272.403 91.1594 270.696 90.3058C272.617 92.2265 273.684 93.0802 273.684 93.7205C273.684 94.3607 272.403 95.001 269.202 95.2144C266.214 95.4278 262.373 95.4278 258.318 94.7875C249.141 93.5071 243.592 90.7327 243.806 89.4522C243.806 88.8119 245.3 87.9583 249.141 87.7449C245.086 86.8912 242.952 87.7448 242.739 89.2387C242.312 92.0131 250.208 94.574 258.105 95.6411C260.879 96.2814 263.44 96.4948 265.787 96.4948Z" fill="#001724"/>
<path d="M248.928 93.7205C250.208 90.0925 250.208 86.8912 250.208 83.9034C250.208 81.3425 250.208 78.7815 250.208 76.2206C250.208 75.3669 250.208 74.5133 250.208 73.8731C250.208 71.0987 249.568 68.3243 248.287 65.3365C248.074 64.9097 247.861 64.2694 247.861 63.8426C248.074 62.9889 249.568 62.3487 250.635 62.3487C251.702 62.3487 252.982 62.7754 254.263 63.6291C256.61 65.5498 257.678 69.8181 258.318 72.5925C258.531 73.873 258.745 74.5132 258.958 74.7266C260.239 76.6474 262.799 76.434 264.08 76.0072C265.36 75.5804 265.574 75.1536 266.001 73.8731C266.428 72.806 267.068 71.0986 268.562 67.8974C271.763 61.7084 275.604 58.7207 279.446 59.5743C280.086 59.7877 281.153 60.428 281.58 61.7084C282.007 62.7755 281.58 64.2694 280.726 65.5499C279.446 67.2572 277.312 71.0986 275.177 74.7266C273.043 78.5681 270.482 83.0498 269.629 83.6901C271.123 83.9035 273.043 80.7022 276.031 75.3669C278.165 71.7388 280.299 67.8974 281.58 66.1901C283.074 64.2694 283.074 62.562 282.647 61.495C282.22 60.0011 280.726 58.934 279.873 58.7206C277.312 58.0804 272.617 58.5073 267.921 67.4706C266.214 70.6719 265.574 72.3791 265.147 73.4462C264.72 74.5133 264.72 74.5133 263.867 74.9401C263.013 75.367 260.879 75.5803 260.025 74.0864C259.812 73.873 259.812 73.0193 259.598 72.1657C258.958 69.3913 257.891 64.6962 255.117 62.562C253.623 61.495 252.129 61.0682 250.848 61.0682C249.568 61.0682 247.647 61.7085 247.22 63.2024C247.007 64.056 247.434 64.6963 247.647 65.3365C248.928 68.1109 249.568 70.6718 249.568 73.4462C249.568 74.2999 249.568 75.1535 249.568 75.7937C249.568 78.3547 249.354 80.9157 249.568 83.4767C249.568 86.4645 249.781 89.6657 248.928 92.6535C248.928 93.7205 248.928 93.7205 248.928 93.7205Z" fill="#001724"/>
<path d="M267.067 96.2815C267.921 93.7206 268.561 91.1595 270.482 90.3058C273.683 88.5985 277.311 83.69 279.658 77.501C280.725 74.94 282.219 72.8059 283.5 71.0986C285.207 68.751 286.701 66.6169 286.274 64.6962C285.634 62.1352 283.286 61.2816 282.006 61.2816C282.006 62.3487 284.567 62.3487 285.207 64.9096C285.634 66.4035 284.354 68.1108 282.646 70.4584C281.152 72.3791 279.658 74.5133 278.591 77.2876C276.244 83.2632 272.829 88.1717 269.841 89.6656C267.494 90.7327 266.64 93.7205 266.427 96.068C267.067 96.2814 267.067 96.2815 267.067 96.2815Z" fill="#001724"/>
<path d="M170.817 84.7571C171.244 84.3303 171.884 76.2206 171.884 76.2206C170.817 76.2206 170.39 84.3303 170.39 84.3303C170.817 84.7571 170.817 84.7571 170.817 84.7571Z" fill="#001724"/>
<path d="M174.019 77.501C174.446 77.501 174.659 77.5011 175.086 77.2877C177.647 76.434 177.86 72.5925 177.647 70.8852C177.647 68.9645 177.22 68.9645 177.006 68.7511C176.58 70.0316 177.006 73.2328 175.939 74.9401C175.513 75.5804 175.299 76.0072 174.659 76.2206C172.738 76.8608 169.964 74.2999 165.269 69.8182L164.202 68.7511C158.439 63.4157 155.665 55.7329 157.586 50.3975C158.653 47.4097 161 45.489 164.415 45.0622C160.574 44.422 157.799 46.5561 156.732 49.9707C154.811 55.9463 157.586 63.6291 163.561 69.3913L164.628 70.4584C169.11 74.9401 171.671 77.501 174.019 77.501Z" fill="#001724"/>
<path d="M197.708 71.9523C199.415 71.9523 200.482 71.312 200.482 71.0986C199.842 70.2449 197.708 71.7389 194.507 69.8181C195.574 71.7389 196.641 71.9523 197.708 71.9523Z" fill="#001724"/>
<path d="M197.921 93.9339C197.708 91.5863 195.147 86.6778 194.08 86.0376C192.799 85.3973 170.818 83.9034 166.976 83.9034C165.269 83.9034 162.068 89.879 161 92.44C163.988 88.5985 166.336 84.9705 166.976 84.9705C171.458 84.9705 192.159 86.4644 193.439 87.1046C193.866 87.318 195.787 90.7327 197.281 93.7205C197.708 93.7205 197.708 93.9339 197.921 93.9339Z" fill="#001724"/>
<path d="M340.695 170.123C338.775 170.123 336.64 169.696 334.506 168.629C330.878 166.921 327.677 164.36 324.689 160.519C321.275 156.037 318.714 150.915 316.579 144.3C315.939 142.592 315.512 140.885 315.086 139.178C314.872 138.324 314.659 137.47 314.445 136.83C314.872 136.19 321.488 134.269 321.488 134.269C322.342 134.056 322.982 133.842 323.836 133.629C324.476 133.416 324.689 133.629 325.116 134.056C328.317 138.537 332.585 142.592 337.921 146.86C339.201 147.928 340.695 148.141 342.403 147.714C343.896 147.287 345.39 146.647 347.311 145.367C351.366 142.806 354.994 139.604 357.768 136.617C363.104 131.281 368.652 125.092 374.415 117.836C374.841 117.196 375.268 117.196 375.909 117.409C378.256 118.05 380.817 118.69 383.165 119.33L385.726 119.97C379.323 133.415 372.281 143.446 365.238 151.982C361.61 156.251 357.342 161.159 351.793 165.214C350.299 166.281 348.592 167.348 346.457 168.415C344.75 169.482 342.829 170.123 340.695 170.123ZM315.512 136.83C315.726 137.47 315.939 138.111 316.153 138.751C316.579 140.458 317.006 142.165 317.647 143.873C319.781 150.489 322.342 155.611 325.543 159.879C328.317 163.507 331.305 166.068 334.933 167.775C338.775 169.482 342.616 169.482 346.244 167.562C348.165 166.495 349.872 165.428 351.366 164.36C356.701 160.519 360.97 155.611 364.598 151.342C371.64 142.806 378.47 132.989 385.512 121.037L383.165 120.397C380.817 119.757 378.256 119.117 375.909 118.476C369.506 126.159 364.171 132.348 358.622 137.684C355.634 140.672 352.006 143.873 347.951 146.647C346.031 147.928 344.323 148.568 342.616 148.995C340.482 149.421 338.775 149.208 337.281 147.928C331.945 143.659 327.677 139.391 324.262 134.909C323.195 135.123 322.555 135.336 321.701 135.55L315.512 136.83Z" fill="#001724"/>
<path d="M347.737 204.269C381.03 204.269 408.134 177.165 408.134 143.873C408.134 110.58 381.03 83.4767 347.737 83.4767C317.006 83.4767 291.183 106.312 287.768 136.83C292.25 106.952 317.646 84.5438 347.737 84.5438C380.603 84.5438 407.28 111.22 407.28 144.086C407.28 176.952 380.603 203.629 347.737 203.629C339.201 203.629 330.878 201.921 323.195 198.293C330.664 202.348 338.987 204.269 347.737 204.269Z" fill="#001724"/>
<path d="M0.299652 409.787H496.487C496.487 408.72 0.299652 408.72 0.299652 408.72C-0.127176 409.573 0.0862379 409.787 0.299652 409.787Z" fill="#001724"/>
<path d="M171.885 246.525C172.525 246.525 172.952 246.525 173.592 246.525C176.366 246.312 178.287 245.244 179.781 242.897C182.342 239.269 183.836 235 184.049 230.519C184.263 225.824 184.049 220.915 177.647 219.208C182.555 221.555 183.409 224.97 183.196 230.519C182.982 234.787 181.488 238.842 179.141 242.257C177.647 244.391 176.153 245.244 173.805 245.458C170.604 245.671 168.043 245.244 165.909 244.391C162.068 242.684 160.147 240.763 160.36 238.842C160.574 237.348 161.854 236.281 162.068 236.281C161.001 235.427 159.507 236.708 159.293 238.628C159.08 240.336 159.933 242.897 165.482 245.244C167.19 246.098 169.324 246.525 171.885 246.525Z" fill="#001724"/>
<path d="M173.165 240.549C171.457 239.482 169.537 239.055 167.403 238.202C165.482 237.562 163.774 236.708 162.281 235.641C161.427 234.787 160.787 233.72 161 232.653C161.214 231.159 162.067 229.879 163.561 229.025C161.214 229.238 160.146 230.946 159.933 232.653C159.72 234.147 160.36 235.427 161.64 236.494C163.134 237.775 165.055 238.629 166.762 239.269C169.11 239.909 171.244 240.336 173.165 240.549Z" fill="#001724"/>
<path d="M176.153 233.293C174.446 232.226 172.311 231.799 169.964 230.732C172.098 232.653 174.232 233.293 176.153 233.293Z" fill="#001724"/>
<path d="M117.677 284.513C118.104 284.086 118.104 213.232 118.104 213.232C117.037 213.232 117.037 283.872 117.037 283.872C117.037 284.086 117.25 284.513 117.677 284.513Z" fill="#001724"/>
<path d="M117.677 183.781C118.104 183.354 118.104 151.342 118.104 151.342C118.104 147.714 121.518 144.94 125.573 144.94H144.567C144.567 143.873 125.573 143.873 125.573 143.873C120.878 143.873 117.037 147.287 117.037 151.342V183.354C117.037 183.354 117.25 183.781 117.677 183.781Z" fill="#001724"/>
<path d="M144.781 144.726H190.878C190.878 143.659 144.781 143.659 144.781 143.659C144.141 144.513 144.354 144.726 144.781 144.726Z" fill="#001724"/>
<path d="M318.286 278.11C318.713 277.683 318.713 151.342 318.713 151.342C318.713 147.287 314.872 143.873 310.177 143.873H260.665C260.665 144.94 310.177 144.94 310.177 144.94C314.231 144.94 317.646 147.928 317.646 151.342V277.683C317.646 277.897 317.859 278.11 318.286 278.11Z" fill="#001724"/>
<path d="M160.147 249.513C161.427 249.299 162.067 248.872 162.281 248.232L164.201 244.818C163.348 244.391 161.427 247.805 161.427 247.805C161.214 248.232 161 248.445 160.573 248.445C160.147 248.659 159.72 248.446 159.506 248.232C158.866 247.805 158.439 246.952 158.866 246.098L161.214 241.83C160.36 241.403 158.012 245.458 158.012 245.458C157.372 246.738 157.799 248.232 159.079 248.872C159.293 249.513 159.72 249.513 160.147 249.513Z" fill="#001724"/>
<path d="M174.872 224.757C175.299 224.543 195.786 187.623 195.786 187.623C196.427 186.342 196 184.848 194.719 184.208C193.439 183.568 191.945 183.995 191.305 185.275L170.817 222.409C171.671 222.836 192.372 185.915 192.372 185.915C192.799 185.062 193.652 184.848 194.506 185.275C195.146 185.702 195.573 186.556 195.146 187.409L174.658 224.33C174.872 224.757 174.872 224.757 174.872 224.757Z" fill="#001724"/>
<path d="M165.055 219.635C169.75 217.287 172.738 218.781 172.738 218.781C173.165 217.714 169.75 216.22 164.842 218.781C164.842 219.635 165.055 219.635 165.055 219.635Z" fill="#001724"/>
<path d="M204.11 389.512H271.762C271.762 388.445 204.11 388.445 204.11 388.445C203.683 389.299 203.896 389.512 204.11 389.512Z" fill="#001724"/>
<path d="M124.293 389.512H152.464C152.464 388.445 124.293 388.445 124.293 388.445C123.866 389.299 124.08 389.512 124.293 389.512Z" fill="#001724"/>
<path d="M407.92 292.195C406.64 289.421 406.64 288.781 406.853 288.567C406.853 288.354 407.494 288.141 408.134 287.927C408.774 287.714 409.628 287.501 409.841 287.074C410.695 285.793 410.055 281.098 409.841 280.244C409.201 282.378 409.414 285.793 408.988 286.647C408.774 286.86 408.347 287.074 407.92 287.074C407.28 287.287 406.213 287.5 406 288.354C405.786 289.208 406.213 290.488 407.707 292.195C407.494 291.982 407.707 292.195 407.92 292.195Z" fill="#001724"/>
<path d="M177.647 225.183C177.647 224.116 173.165 223.69 171.671 221.982C172.952 224.757 177.434 225.183 177.647 225.183Z" fill="#001724"/>
<path d="M196.427 54.239C196.854 54.0256 201.976 49.7574 202.189 43.9952C202.189 40.794 200.696 37.8062 197.708 35.0318C195.574 33.3245 193.44 32.4707 190.879 32.6841C185.543 33.111 181.275 38.2329 181.062 38.4463C181.915 39.0866 185.97 33.9647 190.879 33.5379C193.013 33.3244 194.933 33.9647 196.854 35.672C199.629 38.233 201.122 40.7939 201.122 43.7817C201.122 48.9036 196.214 52.9585 196 52.9585C196.214 54.0255 196.214 54.239 196.427 54.239Z" fill="#001724"/>
<path d="M164.202 45.0622C164.629 44.6354 169.11 35.4585 176.793 34.178C184.263 32.8975 185.33 35.2451 185.33 35.2451C186.183 34.6049 184.903 31.6171 176.58 33.111C168.257 34.6049 163.988 43.995 163.775 44.4219C164.202 45.0621 164.202 45.0622 164.202 45.0622Z" fill="#001724"/>
<path d="M179.994 59.7876C181.488 59.5742 182.555 58.9341 182.982 57.867C184.049 55.9463 183.195 52.9584 182.769 52.3181C185.33 47.623 195.787 46.3426 195.787 46.1292C195.147 45.2756 184.262 46.5559 181.702 51.8913C181.702 52.3181 182.982 55.5193 181.915 57.2266C181.488 57.8669 180.848 58.5072 179.567 58.5072C179.567 59.5743 179.781 59.7876 179.994 59.7876Z" fill="#001724"/>
<path d="M34.6594 255.062C33.8057 253.354 32.9521 251.647 32.9521 249.513C33.8057 251.22 34.6594 253.141 35.0862 255.488C34.8728 255.275 34.6594 255.275 34.6594 255.062ZM29.5375 244.604C28.6838 242.897 28.0436 241.19 28.257 238.842C29.1106 240.763 29.7509 242.47 30.1777 244.818C29.7509 244.818 29.5375 244.818 29.5375 244.604ZM25.0558 233.72C24.4155 231.799 23.7753 230.092 23.9887 227.958C24.6289 229.665 25.2692 231.586 25.9094 233.507C25.9094 233.72 25.9094 234.147 25.4826 234.147C25.2692 234.147 25.0558 233.933 25.0558 233.72ZM21.4277 222.622C20.7875 220.702 20.3607 218.781 20.7875 216.647C21.2143 218.568 21.8546 220.275 22.2814 222.196C22.2814 222.409 22.2814 222.836 21.8546 222.836C21.6412 223.049 21.4277 222.836 21.4277 222.622ZM18.44 211.312C18.0131 209.391 17.5863 207.47 18.2265 205.336C18.4399 207.257 18.8668 208.964 18.8668 211.738C18.6534 211.738 18.44 211.525 18.44 211.312ZM16.5192 199.787C16.3058 197.867 16.0924 195.946 16.946 193.812C17.1595 195.732 17.3729 197.653 16.946 200.214C16.7326 200.214 16.5192 200.001 16.5192 199.787ZM15.4521 188.263C15.4521 187.196 15.4521 186.129 15.4521 184.848C15.4521 183.995 15.4521 183.141 16.5192 182.287C16.5192 183.141 16.5192 183.995 16.5192 184.848C16.5192 185.915 16.5192 186.982 16.0924 188.69C15.6656 188.69 15.4521 188.476 15.4521 188.263ZM15.879 176.525C16.0924 174.604 16.3058 172.684 17.5863 170.763C17.3729 172.684 17.1595 174.604 16.5192 176.952C16.3058 176.952 16.3058 176.952 15.879 176.525ZM17.3729 164.787C17.7997 162.867 18.2265 160.946 19.7204 159.452C19.2936 161.373 18.6534 163.293 17.7997 165.428C17.7997 165.428 17.7997 165.428 17.3729 164.787ZM20.5741 153.69C21.2143 151.769 21.8546 150.062 23.5619 148.568C22.9216 150.275 22.068 152.196 21.0009 154.33C21.0009 154.33 21.0009 154.33 20.5741 153.69Z" fill="url(#paint9_linear_5_9718)"/>
<path d="M33.5918 129.361C33.8052 129.147 34.0186 128.72 35.0857 129.147C34.8723 129.361 34.6589 129.787 34.0186 130.214C34.0186 130.214 33.8052 130.001 33.5918 129.361ZM38.0735 123.812C39.354 122.318 40.6345 121.038 42.7686 120.397C41.4881 121.678 39.9942 123.172 38.5003 124.666C38.2869 124.666 38.2869 124.666 38.0735 123.812ZM46.3966 115.702C47.8905 114.422 49.3844 113.355 51.5186 112.928C50.0247 113.995 48.3174 115.275 46.6101 116.556C46.6101 116.556 46.61 116.556 46.3966 115.702ZM56.0003 108.873C57.7076 107.806 59.4149 106.952 61.549 106.952C59.8417 107.806 58.1344 108.66 56.2137 109.727C56.2137 109.94 56.0003 109.727 56.0003 108.873ZM66.4576 103.751C68.1649 103.111 70.0856 102.257 72.2197 102.684C70.299 103.324 68.5917 103.964 66.671 104.605C66.4575 104.818 66.2441 104.605 66.4576 103.751ZM77.7685 100.123C79.6892 99.6961 81.6099 99.2692 83.7441 99.9095C81.8233 100.336 79.9026 100.55 77.9819 100.977C77.5551 101.19 77.3416 100.977 77.7685 100.123ZM118.104 100.977C118.104 100.977 115.97 100.336 112.555 98.8424C116.183 99.4826 118.317 99.9095 118.104 100.977ZM89.2928 98.2022C91.2136 97.9888 93.1343 97.7753 95.2684 98.8424C93.3477 98.8424 91.427 99.0558 89.5062 99.2693C89.0794 99.2693 88.866 99.0558 89.2928 98.2022ZM106.579 99.0559C104.659 98.8425 102.738 98.8424 100.817 97.7753C102.951 97.7753 104.872 97.9888 106.579 99.0559Z" fill="url(#paint10_linear_5_9718)"/>
<path d="M188.531 364.543C202.403 364.543 213.927 353.232 213.927 339.146C213.927 325.274 202.616 313.75 188.531 313.75C174.659 313.75 163.135 325.061 163.135 339.146C163.135 341.281 163.348 343.415 163.988 345.549C164.415 343.415 164.202 341.281 164.202 339.146C164.202 325.701 175.086 314.817 188.531 314.817C201.976 314.817 212.86 325.701 212.86 339.146C212.86 352.591 201.976 363.476 188.531 363.476C184.476 363.476 180.421 362.409 176.793 360.488C179.994 363.476 184.263 364.543 188.531 364.543Z" fill="#001724"/>
<path d="M453.804 292.836C454.658 292.409 455.512 291.769 456.792 291.982C455.938 292.622 455.085 293.049 454.018 293.689C453.804 293.903 453.591 293.689 453.804 292.836ZM460.42 287.5C461.701 286.22 462.981 284.726 464.902 283.659C463.835 285.366 462.554 286.86 460.847 288.354C460.633 288.354 460.633 288.354 460.42 287.5ZM467.036 278.11C467.889 276.403 468.743 274.696 470.45 273.202C469.81 275.122 468.957 276.83 467.676 278.75C467.463 278.964 467.249 278.964 467.036 278.11ZM471.304 267.439C471.944 265.732 472.371 263.811 473.865 262.104C473.438 264.025 472.798 265.946 471.944 268.08C471.731 268.08 471.731 268.08 471.304 267.439ZM474.079 256.129C474.292 254.848 474.505 253.568 474.719 252.287C474.719 251.647 474.932 251.007 475.999 250.58C475.999 251.22 475.786 251.86 475.786 252.5C475.572 253.781 475.359 255.061 474.719 256.769C474.505 256.769 474.505 256.769 474.079 256.129ZM475.572 244.604C475.786 242.684 475.786 240.763 477.066 238.842C477.066 240.763 476.853 242.683 476.213 245.031C475.999 245.244 475.999 245.244 475.572 244.604ZM475.999 233.08C475.999 231.159 475.999 229.238 476.853 227.318C477.066 229.238 477.066 231.159 476.639 233.72C476.213 233.507 475.999 233.293 475.999 233.08ZM475.359 221.555C475.146 219.635 474.932 217.714 475.572 215.58C475.999 217.501 476.213 219.421 475.999 221.982C475.572 221.982 475.359 221.769 475.359 221.555ZM473.225 210.031C472.798 208.11 472.158 206.19 472.585 204.056C473.225 205.976 473.652 207.684 473.652 210.245C473.652 210.458 473.438 210.458 473.225 210.031Z" fill="url(#paint11_linear_5_9718)"/>
<path d="M462.34 185.062C461.273 183.568 460.42 182.287 459.993 180.367C461.06 181.647 462.127 183.141 462.554 185.275C462.767 185.275 462.554 185.275 462.34 185.062ZM455.724 176.525C454.444 175.031 453.163 173.751 452.523 171.617C454.017 172.897 455.298 174.391 456.151 176.739C455.938 176.739 455.724 176.525 455.724 176.525ZM447.401 168.415C445.907 167.135 444.414 165.854 443.56 163.934C445.054 165.001 446.761 166.281 447.828 168.415C447.615 168.415 447.615 168.415 447.401 168.415ZM438.224 161.373C436.517 160.306 435.023 159.239 433.743 157.531C435.45 158.385 437.157 159.452 438.438 161.586C438.438 161.586 438.224 161.586 438.224 161.373ZM427.981 155.824C426.273 154.97 424.566 154.33 423.072 152.623C424.993 153.263 426.7 154.117 428.194 155.824C428.194 155.824 428.194 155.824 427.981 155.824ZM417.31 151.556C415.389 150.915 413.682 150.489 411.975 148.995C413.895 149.422 415.816 150.062 417.31 151.556Z" fill="url(#paint12_linear_5_9718)"/>
<path d="M257.463 68.1109H268.134C268.134 67.0438 257.463 67.0438 257.463 67.0438C257.036 67.8975 257.25 68.1109 257.463 68.1109Z" fill="#001724"/>
<path d="M258.957 73.0194H265.787C265.787 71.9523 258.957 71.9523 258.957 71.9523C258.531 72.806 258.744 73.0194 258.957 73.0194Z" fill="#001724"/>
<path d="M210.513 162.44C212.86 154.97 220.116 150.062 228.226 150.062C235.909 150.062 242.738 154.544 245.086 161.159C243.592 153.69 236.336 148.995 228.226 148.995C219.69 148.995 212.22 154.33 210.086 161.8C210.513 162.44 210.513 162.44 210.513 162.44Z" fill="#001724"/>
<path d="M19.9341 138.324C19.9341 133.842 23.5621 130.001 28.2572 130.001C32.7389 130.001 36.5804 133.629 36.5804 138.324C36.5804 142.806 32.9523 146.647 28.2572 146.647C23.7755 146.434 19.9341 142.806 19.9341 138.324ZM21.0012 138.324C21.0012 142.379 24.2023 145.58 28.2572 145.58C32.3121 145.58 35.5133 142.379 35.5133 138.324C35.5133 134.269 32.3121 131.068 28.2572 131.068C24.2023 130.855 21.0012 134.269 21.0012 138.324Z" fill="url(#paint13_linear_5_9718)"/>
<path d="M461.061 193.812C461.061 189.33 464.689 185.489 469.384 185.489C473.865 185.489 477.707 189.117 477.707 193.812C477.707 198.293 474.079 202.135 469.384 202.135C464.689 201.921 461.061 198.293 461.061 193.812ZM462.128 193.812C462.128 197.867 465.329 201.068 469.384 201.068C473.439 201.068 476.64 197.867 476.64 193.812C476.64 189.757 473.439 186.556 469.384 186.556C465.329 186.556 462.128 189.757 462.128 193.812Z" fill="url(#paint14_linear_5_9718)"/>
<defs>
<linearGradient id="paint0_linear_5_9718" x1="278.814" y1="81.633" x2="419.955" y2="103.588" gradientUnits="userSpaceOnUse">
<stop stop-color="#FF6B4A"/>
<stop offset="1" stop-color="#FF8D74"/>
</linearGradient>
<linearGradient id="paint1_linear_5_9718" x1="374.041" y1="302.126" x2="500.274" y2="323.835" gradientUnits="userSpaceOnUse">
<stop stop-color="#FF6B4A"/>
<stop offset="1" stop-color="#FF8D74"/>
</linearGradient>
<linearGradient id="paint2_linear_5_9718" x1="155.558" y1="29.1155" x2="208.601" y2="37.6677" gradientUnits="userSpaceOnUse">
<stop stop-color="#FF6B4A"/>
<stop offset="1" stop-color="#FF8D74"/>
</linearGradient>
<linearGradient id="paint3_linear_5_9718" x1="18.0441" y1="221.044" x2="207.218" y2="248.523" gradientUnits="userSpaceOnUse">
<stop stop-color="#FF6B4A"/>
<stop offset="1" stop-color="#FF8D74"/>
</linearGradient>
<linearGradient id="paint4_linear_5_9718" x1="191.826" y1="308.261" x2="222.016" y2="312.963" gradientUnits="userSpaceOnUse">
<stop stop-color="#FF6B4A"/>
<stop offset="1" stop-color="#FF8D74"/>
</linearGradient>
<linearGradient id="paint5_linear_5_9718" x1="308.533" y1="359.962" x2="325.136" y2="362.096" gradientUnits="userSpaceOnUse">
<stop stop-color="#FF6B4A"/>
<stop offset="1" stop-color="#FF8D74"/>
</linearGradient>
<linearGradient id="paint6_linear_5_9718" x1="245.199" y1="10.8271" x2="297.938" y2="19.0309" gradientUnits="userSpaceOnUse">
<stop stop-color="#FF6B4A"/>
<stop offset="1" stop-color="#FF8D74"/>
</linearGradient>
<linearGradient id="paint7_linear_5_9718" x1="258.13" y1="211.75" x2="243.939" y2="210.009" gradientUnits="userSpaceOnUse">
<stop stop-color="#FF6B4A"/>
<stop offset="1" stop-color="#FF8D74"/>
</linearGradient>
<linearGradient id="paint8_linear_5_9718" x1="209.986" y1="148.243" x2="247.646" y2="160.919" gradientUnits="userSpaceOnUse">
<stop stop-color="#FF6B4A"/>
<stop offset="1" stop-color="#FF8D74"/>
</linearGradient>
<linearGradient id="paint9_linear_5_9718" x1="15.0344" y1="138.173" x2="38.6791" y2="138.848" gradientUnits="userSpaceOnUse">
<stop stop-color="#FF6B4A"/>
<stop offset="1" stop-color="#FF8D74"/>
</linearGradient>
<linearGradient id="paint10_linear_5_9718" x1="31.7934" y1="94.6215" x2="119.294" y2="130.088" gradientUnits="userSpaceOnUse">
<stop stop-color="#FF6B4A"/>
<stop offset="1" stop-color="#FF8D74"/>
</linearGradient>
<linearGradient id="paint11_linear_5_9718" x1="453.219" y1="195.334" x2="481.316" y2="196.471" gradientUnits="userSpaceOnUse">
<stop stop-color="#FF6B4A"/>
<stop offset="1" stop-color="#FF8D74"/>
</linearGradient>
<linearGradient id="paint12_linear_5_9718" x1="410.897" y1="145.467" x2="469.212" y2="158.136" gradientUnits="userSpaceOnUse">
<stop stop-color="#FF6B4A"/>
<stop offset="1" stop-color="#FF8D74"/>
</linearGradient>
<linearGradient id="paint13_linear_5_9718" x1="19.5799" y1="128.383" x2="39.1689" y2="131.43" gradientUnits="userSpaceOnUse">
<stop stop-color="#FF6B4A"/>
<stop offset="1" stop-color="#FF8D74"/>
</linearGradient>
<linearGradient id="paint14_linear_5_9718" x1="460.706" y1="183.87" x2="480.295" y2="186.917" gradientUnits="userSpaceOnUse">
<stop stop-color="#FF6B4A"/>
<stop offset="1" stop-color="#FF8D74"/>
</linearGradient>
</defs>
</svg>
