<svg width="145" height="36" viewBox="0 0 145 36" fill="none" xmlns="http://www.w3.org/2000/svg">
<g clip-path="url(#clip0_51_206)">
<path d="M57.1472 13.2343H61.7109V27.589H57.1472V13.2343Z" fill="#E60023"/>
<mask id="mask0_51_206" style="mask-type:luminance" maskUnits="userSpaceOnUse" x="0" y="0" width="145" height="36">
<path d="M0.229248 0.489109H144.715V35.848H0.229248V0.489109Z" fill="white"/>
</mask>
<g mask="url(#mask0_51_206)">
<path d="M62.6638 13.2343H67.0594V15.1968H67.1433C68.2072 13.6547 69.5791 12.8138 71.567 12.8138C74.7026 12.8138 76.5504 15.0567 76.5504 18.2528V27.589H71.9869V19.1781C71.9869 17.664 71.231 16.6266 69.7472 16.6266C68.2353 16.6266 67.2273 17.8883 67.2273 19.6546V27.589H62.6638V13.2343Z" fill="#E60023"/>
<path d="M62.1666 9.39381C62.1666 7.87975 60.9409 6.65251 59.4291 6.65251C57.9173 6.65251 56.6917 7.87975 56.6917 9.39381C56.6917 10.9077 57.9173 12.135 59.4291 12.135C60.9409 12.135 62.1666 10.9077 62.1666 9.39381Z" fill="#E60023"/>
<path d="M108.647 13.0269C108.516 13.0152 108.367 13.01 108.192 13.01C106.457 13.01 105.281 13.7669 104.273 15.4772H104.189V13.2343H99.8213V27.5889H104.385V21.1405C104.385 18.1527 106.037 16.7682 108.647 17.0098V13.0269Z" fill="#E60023"/>
<path d="M131.042 18.5331C129.222 18.1967 127.598 18.0566 127.598 17.0473C127.598 16.15 128.466 15.7295 129.586 15.7295C130.846 15.7295 131.714 16.122 131.882 17.4118H136.082C135.858 14.5801 133.674 12.8137 129.614 12.8137C126.227 12.8137 123.427 14.3838 123.427 17.4118C123.427 20.7759 126.087 21.4489 128.578 21.8695C130.482 22.206 132.218 22.3462 132.218 23.6358C132.218 24.561 131.35 25.0657 129.978 25.0657C128.602 25.0657 127.692 24.4826 127.413 23.2994H123.064C123.384 26.2504 125.971 28.0375 130.006 28.0375C133.758 28.0375 136.53 26.4115 136.53 23.2714C136.53 19.5985 133.562 18.9537 131.042 18.5331Z" fill="#E60023"/>
<path d="M115.726 16.0659C117.21 16.0659 118.274 17.1593 118.442 18.8697H112.786C113.094 17.1593 113.99 16.0659 115.726 16.0659ZM115.978 24.7291C114.102 24.7291 113.038 23.5236 112.758 21.5891H123.061C123.089 18.6734 122.25 16.178 120.542 14.6081C119.31 13.4867 117.686 12.8137 115.642 12.8137C111.274 12.8137 108.279 16.0939 108.279 20.3836C108.279 24.7291 111.191 28.0096 115.922 28.0096C117.742 28.0096 119.198 27.5329 120.402 26.6918C121.661 25.8227 122.501 24.5891 122.809 23.2995H118.358C117.966 24.1966 117.182 24.7291 115.978 24.7291Z" fill="#E60023"/>
<path d="M144.567 24.204C144.355 24.2124 144.071 24.2247 143.81 24.2247C142.83 24.2247 142.215 23.9442 142.215 22.8228V16.094H144.567V13.2343H142.215V8.69235H137.763V13.2343H136.362V16.094H137.763V23.804C137.763 26.8882 139.667 27.7572 142.327 27.7572C143.341 27.7572 144.108 27.6811 144.567 27.5916V24.204Z" fill="#E60023"/>
<path d="M84.7004 24.2105C84.5183 24.2176 84.3082 24.2246 84.1118 24.2246C83.1321 24.2246 82.516 23.9442 82.516 22.8227V16.0939H84.7004V13.2342H82.516V8.69232H78.0645V13.2342H76.5801V16.0939H78.0645V23.804C78.0645 26.8882 79.9682 27.7571 82.628 27.7571C83.528 27.7571 84.2326 27.6972 84.7004 27.6212V24.2105Z" fill="#E60023"/>
<path d="M94.6406 18.8697C94.4726 17.1594 93.4085 16.0658 91.9247 16.0658C90.1889 16.0658 89.293 17.1594 88.985 18.8697H94.6406ZM84.4775 20.3836C84.4775 16.094 87.4732 12.8138 91.8408 12.8138C93.8845 12.8138 95.5085 13.4866 96.7403 14.6081C98.4482 16.1781 99.288 18.6734 99.26 21.5892H88.9572C89.237 23.5236 90.3009 24.7292 92.1768 24.7292C93.3806 24.7292 94.1646 24.1966 94.5564 23.2994H99.008C98.7 24.589 97.8602 25.8226 96.6002 26.6919C95.3965 27.5329 93.9406 28.0095 92.1207 28.0095C87.3891 28.0095 84.4775 24.7292 84.4775 20.3836Z" fill="#E60023"/>
<path d="M49.2221 16.9632C51.0139 16.9632 52.0218 15.8977 52.0218 14.2995C52.0218 12.7016 50.9858 11.7203 49.2221 11.7203H45.7222V16.9632H49.2221ZM41.1021 7.54286H49.0269C51.4625 7.54286 53.2544 8.21567 54.4863 9.39326C55.7742 10.5987 56.5021 12.3091 56.5021 14.3277C56.5021 18.1686 53.8424 20.8883 49.7267 20.8883H45.7222V27.589H41.1021V7.54286Z" fill="#E60023"/>
<path d="M34.8373 18.1686C34.8373 27.6976 27.1232 35.4226 17.6075 35.4226C8.09178 35.4226 0.377686 27.6976 0.377686 18.1686C0.377686 8.63933 8.09178 0.914543 17.6075 0.914543C27.1232 0.914543 34.8373 8.63933 34.8373 18.1686Z" fill="white"/>
<path d="M17.6075 0.914299C8.09178 0.914299 0.377686 8.63923 0.377686 18.1683C0.377686 25.478 4.91917 31.7268 11.3285 34.2408C11.178 32.8756 11.0418 30.7762 11.3883 29.2859C11.7014 27.9393 13.4087 20.7095 13.4087 20.7095C13.4087 20.7095 12.8933 19.6759 12.8933 18.1478C12.8933 15.7486 14.2819 13.9575 16.011 13.9575C17.481 13.9575 18.191 15.0627 18.191 16.3879C18.191 17.8683 17.2498 20.0817 16.764 22.1328C16.3581 23.8501 17.624 25.2506 19.3155 25.2506C22.3778 25.2506 24.7318 22.0171 24.7318 17.3495C24.7318 13.2184 21.7675 10.33 17.5348 10.33C12.6323 10.33 9.75471 14.0122 9.75471 17.8177C9.75471 19.3006 10.3252 20.8908 11.037 21.7553C11.1778 21.9261 11.1984 22.0758 11.1565 22.2501C11.0257 22.7951 10.735 23.967 10.678 24.2069C10.6028 24.5227 10.4283 24.5898 10.1017 24.4376C7.94984 23.4345 6.60441 20.2839 6.60441 17.7533C6.60441 12.3106 10.5534 7.31214 17.9888 7.31214C23.9659 7.31214 28.6107 11.5773 28.6107 17.2773C28.6107 23.2236 24.8667 28.0093 19.67 28.0093C17.924 28.0093 16.2827 27.101 15.7209 26.028C15.7209 26.028 14.8569 29.3224 14.6475 30.1297C14.2585 31.6283 13.2084 33.5069 12.506 34.6529C14.1181 35.1528 15.8313 35.4223 17.6075 35.4223C27.1234 35.4223 34.8375 27.6974 34.8375 18.1683C34.8375 8.63923 27.1234 0.914299 17.6075 0.914299Z" fill="#E60023"/>
</g>
</g>
<defs>
<clipPath id="clip0_51_206">
<rect width="144.486" height="35.3589" fill="white" transform="translate(0.229248 0.489105)"/>
</clipPath>
</defs>
</svg>
