<svg width="42" height="42" viewBox="0 0 42 42" fill="none" xmlns="http://www.w3.org/2000/svg">
<path d="M25.1667 8.49996H29.3334V12.6666H39.7501C40.9007 12.6666 41.8334 13.5994 41.8334 14.75V30.375L29.3334 23.0833L29.4082 39.8795L34.0401 35.4018L37.7522 41.8333H14.7501C13.5995 41.8333 12.6667 40.9006 12.6667 39.75V29.3333H8.50008V25.1666H12.6667V14.75C12.6667 13.5994 13.5995 12.6666 14.7501 12.6666H25.1667V8.49996ZM41.8334 32.1208V39.75C41.8334 39.9729 41.7984 40.1877 41.7336 40.3891L37.6486 33.3185L41.8334 32.1208ZM4.33342 25.1666V29.3333H0.166748V25.1666H4.33342ZM4.33342 16.8333V21H0.166748V16.8333H4.33342ZM4.33342 8.49996V12.6666H0.166748V8.49996H4.33342ZM4.33342 0.166626V4.33329H0.166748V0.166626H4.33342ZM12.6667 0.166626V4.33329H8.50008V0.166626H12.6667ZM21.0001 0.166626V4.33329H16.8334V0.166626H21.0001ZM29.3334 0.166626V4.33329H25.1667V0.166626H29.3334Z" fill="#6ED5F5"/>
</svg>
