<svg width="146" height="68" viewBox="0 0 146 68" fill="none" xmlns="http://www.w3.org/2000/svg">
<path d="M120.108 30.4307C121.521 30.4307 122.667 29.2862 122.667 27.8745C122.667 26.4627 121.521 25.3182 120.108 25.3182C118.695 25.3182 117.55 26.4627 117.55 27.8745C117.55 29.2862 118.695 30.4307 120.108 30.4307Z" fill="#222222"/>
<path d="M83.5646 38.7746C84.8198 38.7746 85.5439 37.8341 85.4956 36.9177C85.4715 36.4354 85.4232 36.1219 85.3749 35.8808C84.6025 32.5528 81.8992 30.0931 78.6889 30.0931C74.8752 30.0931 71.7856 33.5416 71.7856 37.7859C71.7856 42.0302 74.8752 45.4787 78.6889 45.4787C81.0785 45.4787 82.7922 44.6106 84.0232 43.236C84.6267 42.5607 84.506 41.5238 83.7819 41.0174C83.1784 40.6074 82.4302 40.7521 81.875 41.2103C81.344 41.6685 80.3302 42.5849 78.6889 42.5849C76.7579 42.5849 75.1166 40.9209 74.7545 38.7264H83.5646V38.7746ZM78.6648 33.011C80.4027 33.011 81.8992 34.3615 82.4543 36.2184H74.8752C75.4304 34.3374 76.9269 33.011 78.6648 33.011Z" fill="#222222"/>
<path d="M71.9303 31.6123C71.9303 30.8889 71.3992 30.3101 70.7234 30.1895C68.6235 29.876 66.6442 30.6477 65.5098 32.0705V31.8776C65.5098 30.9853 64.7856 30.4307 64.0615 30.4307C63.265 30.4307 62.6133 31.0818 62.6133 31.8776V43.6942C62.6133 44.4659 63.1926 45.1411 63.965 45.1893C64.8098 45.2375 65.5098 44.5864 65.5098 43.7424V37.6412C65.5098 34.9403 67.5373 32.7217 70.3372 33.0352C70.4338 33.0352 70.5303 33.0352 70.6269 33.0352C71.351 32.9869 71.9303 32.3599 71.9303 31.6123Z" fill="#222222"/>
<path d="M121.557 33.1557C121.557 32.3599 120.905 31.7088 120.108 31.7088C119.312 31.7088 118.66 32.3599 118.66 33.1557C118.66 33.204 118.66 43.2842 118.66 43.7424C118.66 44.5382 119.312 45.1893 120.108 45.1893C120.905 45.1893 121.557 44.5382 121.557 43.7424C121.557 43.3083 121.557 33.2281 121.557 33.1557Z" fill="#222222"/>
<path d="M100.026 25.1494C100.026 24.3536 99.3742 23.7025 98.5777 23.7025C97.7812 23.7025 97.1295 24.3536 97.1295 25.1494V31.5882C96.1398 30.5995 94.9088 30.1172 93.4365 30.1172C89.6228 30.1172 86.5332 33.5657 86.5332 37.81C86.5332 42.0543 89.6228 45.5028 93.4365 45.5028C94.9088 45.5028 96.164 44.9964 97.1536 44.0077C97.2743 44.6829 97.8777 45.1893 98.5777 45.1893C99.3742 45.1893 100.026 44.5382 100.026 43.7424V25.1494ZM93.4606 42.6331C91.24 42.6331 89.4538 40.4868 89.4538 37.81C89.4538 35.1573 91.24 32.9869 93.4606 32.9869C95.6812 32.9869 97.4674 35.1332 97.4674 37.81C97.4674 40.4868 95.6571 42.6331 93.4606 42.6331Z" fill="#222222"/>
<path d="M115.136 25.1494C115.136 24.3536 114.484 23.7025 113.688 23.7025C112.891 23.7025 112.239 24.3536 112.239 25.1494V31.5882C111.25 30.5995 110.019 30.1172 108.546 30.1172C104.733 30.1172 101.643 33.5657 101.643 37.81C101.643 42.0543 104.733 45.5028 108.546 45.5028C110.019 45.5028 111.274 44.9964 112.263 44.0077C112.384 44.6829 112.988 45.1893 113.688 45.1893C114.484 45.1893 115.136 44.5382 115.136 43.7424V25.1494ZM108.546 42.6331C106.326 42.6331 104.54 40.4868 104.54 37.81C104.54 35.1573 106.326 32.9869 108.546 32.9869C110.767 32.9869 112.553 35.1332 112.553 37.81C112.553 40.4868 110.767 42.6331 108.546 42.6331Z" fill="#222222"/>
<path d="M128.895 43.7665V33.011H130.174C130.85 33.011 131.453 32.5046 131.501 31.8053C131.55 31.0577 130.946 30.4307 130.222 30.4307H128.895V28.405C128.895 27.6333 128.315 26.9581 127.543 26.9098C126.698 26.8616 125.998 27.5127 125.998 28.3568V30.4548H124.791C124.115 30.4548 123.512 30.9612 123.464 31.6606C123.415 32.4081 124.019 33.0352 124.743 33.0352H125.974V43.7906C125.974 44.5864 126.626 45.2375 127.422 45.2375C128.267 45.1893 128.895 44.5623 128.895 43.7665Z" fill="#222222"/>
<path d="M34.2759 54.3773C45.447 54.3773 54.5029 45.3296 54.5029 34.1686C54.5029 23.0076 45.447 13.9599 34.2759 13.9599C23.1048 13.9599 14.0488 23.0076 14.0488 34.1686C14.0488 45.3296 23.1048 54.3773 34.2759 54.3773Z" fill="#222222"/>
<path d="M47.7688 34.1686C47.7688 32.5287 46.4412 31.2265 44.824 31.2265C44.0275 31.2265 43.3034 31.54 42.7723 32.0464C40.7448 30.5995 37.969 29.659 34.8794 29.5384L36.2311 23.2202L40.6241 24.1607C40.6724 25.27 41.5896 26.1623 42.7241 26.1623C43.8827 26.1623 44.824 25.2218 44.824 24.0642C44.824 22.9067 43.8827 21.9662 42.7241 21.9662C41.9034 21.9662 41.1793 22.4485 40.8414 23.1478L35.9415 22.1109C35.7967 22.0868 35.6518 22.1109 35.5553 22.1832C35.4346 22.2556 35.3622 22.3761 35.3381 22.5208L33.8415 29.5625C30.7037 29.659 27.8796 30.5995 25.828 32.0705C25.2969 31.5641 24.5728 31.2506 23.7763 31.2506C22.135 31.2506 20.8315 32.577 20.8315 34.1927C20.8315 35.3985 21.5557 36.4113 22.5694 36.8695C22.5212 37.1589 22.497 37.4483 22.497 37.7618C22.497 42.2955 27.7831 45.9851 34.3001 45.9851C40.8172 45.9851 46.1033 42.3196 46.1033 37.7618C46.1033 37.4724 46.0791 37.1589 46.0309 36.8695C47.0446 36.4113 47.7688 35.3744 47.7688 34.1686ZM27.5417 36.2666C27.5417 35.1091 28.4831 34.1686 29.6417 34.1686C30.8002 34.1686 31.7416 35.1091 31.7416 36.2666C31.7416 37.4242 30.8002 38.3647 29.6417 38.3647C28.4831 38.3888 27.5417 37.4242 27.5417 36.2666ZM39.2966 41.8373C37.8483 43.2842 35.0967 43.3807 34.3001 43.3807C33.4795 43.3807 30.7278 43.2601 29.3037 41.8373C29.0865 41.6203 29.0865 41.2826 29.3037 41.0656C29.521 40.8486 29.8589 40.8486 30.0761 41.0656C30.9933 41.982 32.9243 42.2955 34.3001 42.2955C35.676 42.2955 37.6311 41.982 38.5242 41.0656C38.7414 40.8486 39.0793 40.8486 39.2966 41.0656C39.4897 41.2826 39.4897 41.6203 39.2966 41.8373ZM38.9104 38.3888C37.7518 38.3888 36.8104 37.4483 36.8104 36.2907C36.8104 35.1332 37.7518 34.1927 38.9104 34.1927C40.069 34.1927 41.0103 35.1332 41.0103 36.2907C41.0103 37.4242 40.069 38.3888 38.9104 38.3888Z" fill="white"/>
</svg>
