<svg width="146" height="44" viewBox="0 0 146 44" fill="none" xmlns="http://www.w3.org/2000/svg">
<g clip-path="url(#clip0_51_186)">
<path d="M35.9774 19.7439C29.0978 15.6538 17.7501 15.2778 11.1827 17.2732C10.128 17.5934 9.01283 16.9974 8.69327 15.9416C8.3737 14.8854 8.96844 13.7696 10.0238 13.4487C17.5628 11.1575 30.0951 11.6002 38.015 16.3067C38.9638 16.8703 39.275 18.0968 38.7126 19.0451C38.1498 19.9946 36.9237 20.3077 35.9774 19.7439ZM35.7521 25.8019C35.2697 26.5861 34.2457 26.8318 33.4635 26.3506C27.728 22.8211 18.982 21.7987 12.1964 23.8606C11.3165 24.1268 10.3871 23.6302 10.1199 22.7508C9.85465 21.8699 10.351 20.9411 11.2294 20.6732C18.981 18.3185 28.6172 19.459 35.2047 23.5119C35.9869 23.9941 36.2331 25.0198 35.7521 25.8019ZM33.1406 31.6199C32.7573 32.2494 31.9382 32.4468 31.3118 32.0631C26.2999 28.9967 19.9917 28.3039 12.5626 30.0029C11.8466 30.1672 11.1332 29.7179 10.9699 29.0015C10.8059 28.2848 11.2528 27.5707 11.9704 27.4071C20.1002 25.5465 27.074 26.3473 32.6995 29.7886C33.3267 30.172 33.5242 30.9924 33.1406 31.6199ZM23.3528 0.802414C11.5659 0.802414 2.01025 10.3681 2.01025 22.1682C2.01025 33.9693 11.5659 43.5348 23.3528 43.5348C35.1402 43.5348 44.6953 33.9693 44.6953 22.1682C44.6953 10.3681 35.1402 0.802414 23.3528 0.802414Z" fill="#1ED760"/>
<path d="M60.0759 20.527C56.3909 19.6473 55.7347 19.0298 55.7347 17.7327C55.7347 16.5068 56.8876 15.6822 58.6018 15.6822C60.2635 15.6822 61.9109 16.3085 63.6385 17.598C63.6908 17.637 63.7563 17.6526 63.8208 17.6424C63.8852 17.6327 63.9421 17.5975 63.98 17.5439L65.7793 15.0048C65.8532 14.9004 65.8331 14.756 65.7335 14.6761C63.6775 13.0246 61.3624 12.2217 58.6563 12.2217C54.6775 12.2217 51.8983 14.6119 51.8983 18.0323C51.8983 21.7 54.2958 22.9985 58.4387 24.0009C61.9649 24.8141 62.56 25.4952 62.56 26.7132C62.56 28.0625 61.3565 28.9015 59.4199 28.9015C57.2692 28.9015 55.5145 28.1762 53.5518 26.4746C53.5031 26.4327 53.4364 26.4134 53.3747 26.4169C53.31 26.4223 53.2506 26.4524 53.2093 26.5021L51.1919 28.9058C51.1072 29.0056 51.1179 29.1545 51.2156 29.2407C53.4993 31.2817 56.3076 32.3598 59.3383 32.3598C63.6258 32.3598 66.3963 30.0144 66.3963 26.3845C66.3963 23.3167 64.5654 21.6202 60.0759 20.527Z" fill="#1ED760"/>
<path d="M79.2088 24.6386C79.2088 27.229 77.615 29.0366 75.3327 29.0366C73.0765 29.0366 71.3745 27.1469 71.3745 24.6386C71.3745 22.1306 73.0765 20.2406 75.3327 20.2406C77.5783 20.2406 79.2088 22.0898 79.2088 24.6386ZM76.0965 16.8887C74.2381 16.8887 72.7138 17.6215 71.4569 19.123V17.4329C71.4569 17.2995 71.3488 17.1908 71.2155 17.1908H67.9161C67.7829 17.1908 67.675 17.2995 67.675 17.4329V36.2118C67.675 36.3452 67.7829 36.4538 67.9161 36.4538H71.2155C71.3488 36.4538 71.4569 36.3452 71.4569 36.2118V30.2843C72.7141 31.6968 74.2386 32.3866 76.0965 32.3866C79.5496 32.3866 83.0452 29.7255 83.0452 24.6386C83.0452 19.5505 79.5496 16.8887 76.0965 16.8887Z" fill="#1ED760"/>
<path d="M92.0053 29.0637C89.64 29.0637 87.8568 27.1611 87.8568 24.6385C87.8568 22.1054 89.5783 20.2671 91.9508 20.2671C94.3314 20.2671 96.1266 22.1696 96.1266 24.6939C96.1266 27.2267 94.3933 29.0637 92.0053 29.0637ZM92.0053 16.8887C87.5583 16.8887 84.0745 20.3168 84.0745 24.6939C84.0745 29.0234 87.5344 32.4155 91.9508 32.4155C96.4136 32.4155 99.9082 28.999 99.9082 24.6385C99.9082 20.2928 96.4375 16.8887 92.0053 16.8887Z" fill="#1ED760"/>
<path d="M109.405 17.1908H105.774V13.4744C105.774 13.341 105.666 13.2326 105.533 13.2326H102.234C102.1 13.2326 101.992 13.341 101.992 13.4744V17.1908H100.405C100.272 17.1908 100.165 17.2995 100.165 17.4329V20.2718C100.165 20.4051 100.272 20.5138 100.405 20.5138H101.992V27.8597C101.992 30.8283 103.467 32.3333 106.378 32.3333C107.562 32.3333 108.544 32.0886 109.469 31.5633C109.544 31.5213 109.591 31.4401 109.591 31.3538V28.6504C109.591 28.5669 109.548 28.4884 109.476 28.4445C109.405 28.3994 109.315 28.3971 109.242 28.4336C108.606 28.7537 107.991 28.9015 107.305 28.9015C106.246 28.9015 105.774 28.4205 105.774 27.342V20.5138H109.405C109.538 20.5138 109.645 20.4051 109.645 20.2718V17.4329C109.645 17.2995 109.538 17.1908 109.405 17.1908Z" fill="#1ED760"/>
<path d="M122.055 17.2053V16.7489C122.055 15.4061 122.569 14.8073 123.723 14.8073C124.41 14.8073 124.963 14.944 125.582 15.1507C125.658 15.1747 125.738 15.1627 125.799 15.117C125.863 15.0714 125.899 14.9981 125.899 14.9206V12.137C125.899 12.0306 125.831 11.9364 125.729 11.9053C125.075 11.7106 124.238 11.5106 122.986 11.5106C119.938 11.5106 118.328 13.2287 118.328 16.4774V17.1765H116.742C116.609 17.1765 116.5 17.2849 116.5 17.4184V20.2718C116.5 20.4051 116.609 20.5138 116.742 20.5138H118.328V31.8445C118.328 31.9779 118.435 32.0864 118.568 32.0864H121.868C122.001 32.0864 122.109 31.9779 122.109 31.8445V20.5138H125.19L129.909 31.8415C129.374 33.0317 128.847 33.2685 128.128 33.2685C127.546 33.2685 126.934 33.0946 126.308 32.7518C126.249 32.7193 126.18 32.714 126.116 32.7337C126.053 32.7561 126 32.8028 125.973 32.8643L124.855 35.3205C124.802 35.4366 124.847 35.5729 124.959 35.6331C126.126 36.2661 127.18 36.5363 128.483 36.5363C130.919 36.5363 132.266 35.3999 133.453 32.3433L139.177 17.535C139.206 17.4605 139.198 17.3765 139.152 17.3102C139.107 17.2449 139.033 17.2053 138.953 17.2053H135.518C135.416 17.2053 135.323 17.2707 135.29 17.3674L131.771 27.4296L127.917 17.3607C127.882 17.2671 127.792 17.2053 127.692 17.2053H122.055Z" fill="#1ED760"/>
<path d="M114.721 17.1908H111.422C111.288 17.1908 111.18 17.2995 111.18 17.4329V31.8445C111.18 31.9779 111.288 32.0864 111.422 32.0864H114.721C114.854 32.0864 114.963 31.9779 114.963 31.8445V17.4329C114.963 17.2995 114.854 17.1908 114.721 17.1908Z" fill="#1ED760"/>
<path d="M113.088 10.6288C111.781 10.6288 110.72 11.6884 110.72 12.9968C110.72 14.3062 111.781 15.3668 113.088 15.3668C114.395 15.3668 115.454 14.3062 115.454 12.9968C115.454 11.6884 114.395 10.6288 113.088 10.6288Z" fill="#1ED760"/>
<path d="M142.129 18.6243H141.525V19.3961H142.129C142.431 19.3961 142.611 19.2483 142.611 19.01C142.611 18.759 142.431 18.6243 142.129 18.6243ZM142.521 19.7253L143.178 20.646H142.624L142.033 19.8015H141.525V20.646H141.061V18.2057H142.148C142.714 18.2057 143.087 18.4959 143.087 18.9841C143.087 19.3841 142.856 19.6285 142.521 19.7253ZM142.007 17.3939C140.817 17.3939 139.917 18.3402 139.917 19.4995C139.917 20.658 140.811 21.5918 141.994 21.5918C143.184 21.5918 144.084 20.646 144.084 19.4862C144.084 18.3277 143.19 17.3939 142.007 17.3939ZM141.994 21.8243C140.688 21.8243 139.672 20.7744 139.672 19.4995C139.672 18.2243 140.702 17.1625 142.007 17.1625C143.312 17.1625 144.329 18.2124 144.329 19.4862C144.329 20.7613 143.3 21.8243 141.994 21.8243Z" fill="#1ED760"/>
</g>
<defs>
<clipPath id="clip0_51_186">
<rect width="144.486" height="43.384" fill="white" transform="translate(0.926514 0.476593)"/>
</clipPath>
</defs>
</svg>
