<svg width="146" height="70" viewBox="0 0 146 70" fill="none" xmlns="http://www.w3.org/2000/svg">
<path fill-rule="evenodd" clip-rule="evenodd" d="M128.695 35.8341C128.695 27.91 124.867 21.6573 117.55 21.6573C110.202 21.6573 105.756 27.91 105.756 35.7721C105.756 45.0892 111.005 49.7941 118.538 49.7941C122.212 49.7941 124.99 48.9583 127.09 47.7821V41.5914C124.99 42.6438 122.582 43.2938 119.526 43.2938C116.531 43.2938 113.876 42.2414 113.536 38.5889H128.633C128.633 38.1865 128.695 36.5769 128.695 35.8341ZM113.444 32.8935C113.444 29.3957 115.574 27.9409 117.519 27.9409C119.402 27.9409 121.409 29.3957 121.409 32.8935H113.444Z" fill="#635BFF"/>
<path fill-rule="evenodd" clip-rule="evenodd" d="M93.8393 21.6573C90.8137 21.6573 88.8687 23.0812 87.7881 24.0717L87.3868 22.1526H80.5947V58.2444L88.313 56.6039L88.3438 47.844C89.4553 48.6488 91.0916 49.7941 93.8084 49.7941C99.3347 49.7941 104.367 45.3368 104.367 35.5245C104.336 26.548 99.242 21.6573 93.8393 21.6573ZM91.9869 42.9843C90.1654 42.9843 89.0848 42.3343 88.3438 41.5295L88.313 30.0457C89.1157 29.1481 90.2271 28.529 91.9869 28.529C94.7963 28.529 96.7413 31.6863 96.7413 35.7412C96.7413 39.889 94.8272 42.9843 91.9869 42.9843Z" fill="#635BFF"/>
<path fill-rule="evenodd" clip-rule="evenodd" d="M69.9746 19.8311L77.7237 18.1596V11.8761L69.9746 13.5166V19.8311Z" fill="#635BFF"/>
<path d="M77.7237 22.1836H69.9746V49.2679H77.7237V22.1836Z" fill="#635BFF"/>
<path fill-rule="evenodd" clip-rule="evenodd" d="M61.6699 24.4741L61.1759 22.1836H54.5073V49.2679H62.2256V30.9125C64.0471 28.529 67.1344 28.9624 68.0915 29.3029V22.1836C67.1035 21.8121 63.4914 21.1311 61.6699 24.4741Z" fill="#635BFF"/>
<path fill-rule="evenodd" clip-rule="evenodd" d="M46.2333 15.4667L38.7003 17.0763L38.6694 41.87C38.6694 46.4511 42.0963 49.8251 46.6655 49.8251C49.1971 49.8251 51.0495 49.3608 52.0683 48.8036V42.52C51.0804 42.9224 46.2025 44.3463 46.2025 39.7652V28.7767H52.0683V22.1836H46.2025L46.2333 15.4667Z" fill="#635BFF"/>
<path fill-rule="evenodd" clip-rule="evenodd" d="M25.3631 30.0457C25.3631 28.8386 26.3511 28.3743 27.9873 28.3743C30.3337 28.3743 33.2975 29.0862 35.6438 30.3553V23.0812C33.0814 22.0597 30.5498 21.6573 27.9873 21.6573C21.7201 21.6573 17.5522 24.9384 17.5522 30.4172C17.5522 38.9604 29.284 37.5984 29.284 41.2819C29.284 42.7057 28.0491 43.17 26.3202 43.17C23.7577 43.17 20.4852 42.1176 17.8918 40.6938V48.0607C20.763 49.2988 23.6651 49.825 26.3202 49.825C32.7418 49.825 37.1566 46.6368 37.1566 41.0962C37.1257 31.872 25.3631 33.5125 25.3631 30.0457Z" fill="#635BFF"/>
</svg>
